<?xml version="1.0" encoding="UTF-8"?>
<!DOCTYPE svg PUBLIC "-//W3C//DTD SVG 1.1//EN" "http://www.w3.org/Graphics/SVG/1.1/DTD/svg11.dtd">
<svg xmlns="http://www.w3.org/2000/svg" version="1.1" width="180px" height="180px" style="shape-rendering:geometricPrecision; text-rendering:geometricPrecision; image-rendering:optimizeQuality; fill-rule:evenodd; clip-rule:evenodd" xmlns:xlink="http://www.w3.org/1999/xlink">
<g><path style="opacity:1" fill="#150a08" d="M -0.5,-0.5 C 19.5,-0.5 39.5,-0.5 59.5,-0.5C 61.8866,1.28729 62.0533,3.28729 60,5.5C 57.4717,4.06588 55.6383,4.73255 54.5,7.5C 52.7946,5.25805 50.7946,5.25805 48.5,7.5C 47.1667,6.83333 45.8333,6.16667 44.5,5.5C 38.6491,7.00732 33.1491,8.34065 28,9.5C 25.5303,9.65974 23.3636,8.99307 21.5,7.5C 19.5,8.16667 17.5,8.83333 15.5,9.5C 10.219,8.81842 4.88567,8.81842 -0.5,9.5C -0.5,6.16667 -0.5,2.83333 -0.5,-0.5 Z"/></g>
<g><path style="opacity:1" fill="#0c0705" d="M 115.5,-0.5 C 124.167,-0.5 132.833,-0.5 141.5,-0.5C 141.5,1.5 141.5,3.5 141.5,5.5C 125.656,6.11222 109.99,7.11222 94.5,8.5C 91.8333,8.5 89.1667,8.5 86.5,8.5C 88.631,7.68618 90.9644,7.18618 93.5,7C 91.1902,6.50335 88.8568,6.33669 86.5,6.5C 91.8561,4.57092 97.3561,2.57092 103,0.5C 105.877,3.48748 108.877,3.82081 112,1.5C 113.785,2.35379 114.951,1.68713 115.5,-0.5 Z"/></g>
<g><path style="opacity:1" fill="#1a1109" d="M 168.5,5.5 C 169.17,8.34311 170.503,10.8431 172.5,13C 172.734,16.2923 172.734,19.6256 172.5,23C 174.891,23.6914 174.891,24.6914 172.5,26C 173.308,26.3076 173.975,26.8076 174.5,27.5C 173.873,28.4168 173.539,29.4168 173.5,30.5C 167.366,23.9428 162.033,16.7761 157.5,9C 158.078,7.18862 158.578,5.35529 159,3.5C 160.147,4.45805 161.147,4.12472 162,2.5C 164.734,3.36166 164.901,4.195 162.5,5C 163.667,5.5 164.5,6.33333 165,7.5C 165.533,5.06143 166.7,4.39477 168.5,5.5 Z"/></g>
<g><path style="opacity:1" fill="#130a07" d="M 59.5,-0.5 C 78.1667,-0.5 96.8333,-0.5 115.5,-0.5C 114.951,1.68713 113.785,2.35379 112,1.5C 108.877,3.82081 105.877,3.48748 103,0.5C 97.3561,2.57092 91.8561,4.57092 86.5,6.5C 75.8497,7.23838 65.183,7.57171 54.5,7.5C 55.6383,4.73255 57.4717,4.06588 60,5.5C 62.0533,3.28729 61.8866,1.28729 59.5,-0.5 Z"/></g>
<g><path style="opacity:1" fill="#2b2214" d="M 141.5,-0.5 C 143.833,-0.5 146.167,-0.5 148.5,-0.5C 149.499,2.16177 150.499,4.82843 151.5,7.5C 149.852,8.77715 148.018,9.77715 146,10.5C 145.333,9.83333 144.667,9.16667 144,8.5C 139.59,9.8922 134.757,10.8922 129.5,11.5C 127.5,11.5 125.5,11.5 123.5,11.5C 122.389,10.3887 121.055,9.72199 119.5,9.5C 116.593,10.0099 113.759,10.6766 111,11.5C 110.333,10.8333 109.667,10.1667 109,9.5C 107.644,10.3802 106.144,10.7135 104.5,10.5C 104.217,9.71087 103.717,9.0442 103,8.5C 100.315,8.82733 97.4818,8.82733 94.5,8.5C 109.99,7.11222 125.656,6.11222 141.5,5.5C 141.5,3.5 141.5,1.5 141.5,-0.5 Z"/></g>
<g><path style="opacity:1" fill="#080503" d="M 54.5,7.5 C 65.183,7.57171 75.8497,7.23838 86.5,6.5C 88.8568,6.33669 91.1902,6.50335 93.5,7C 90.9644,7.18618 88.631,7.68618 86.5,8.5C 57.4666,9.8211 28.4666,11.4878 -0.5,13.5C -0.5,12.1667 -0.5,10.8333 -0.5,9.5C 4.88567,8.81842 10.219,8.81842 15.5,9.5C 17.5,8.83333 19.5,8.16667 21.5,7.5C 23.3636,8.99307 25.5303,9.65974 28,9.5C 33.1491,8.34065 38.6491,7.00732 44.5,5.5C 45.8333,6.16667 47.1667,6.83333 48.5,7.5C 50.7946,5.25805 52.7946,5.25805 54.5,7.5 Z"/></g>
<g><path style="opacity:1" fill="#2d2414" d="M 86.5,8.5 C 89.1667,8.5 91.8333,8.5 94.5,8.5C 97.4818,8.82733 100.315,8.82733 103,8.5C 103.717,9.0442 104.217,9.71087 104.5,10.5C 100.895,10.8633 97.395,10.8633 94,10.5C 92.6362,11.3707 91.4695,12.3707 90.5,13.5C 90.1667,13.5 89.8333,13.5 89.5,13.5C 88.2702,12.3943 87.1036,11.3943 86,10.5C 85.6667,10.8333 85.3333,11.1667 85,11.5C 82.5393,10.7819 80.0393,10.1153 77.5,9.5C 72.8867,10.2787 68.22,10.7787 63.5,11C 62.5324,14.4047 61.0324,14.9047 59,12.5C 58.6667,13.1667 58.3333,13.8333 58,14.5C 55.2754,13.1276 52.6088,12.1276 50,11.5C 48.8289,12.8932 47.3289,13.7265 45.5,14C 46.6956,14.6543 46.6956,15.1543 45.5,15.5C 43.5572,13.4744 41.3905,13.4744 39,15.5C 36.9203,13.0267 34.7536,13.0267 32.5,15.5C 29.9554,14.7503 27.4554,15.0836 25,16.5C 24.3333,15.8333 23.6667,15.1667 23,14.5C 20.3788,15.9915 17.5455,16.6582 14.5,16.5C 14.3671,13.1043 13.3671,12.7709 11.5,15.5C 7.51772,14.329 3.51772,14.329 -0.5,15.5C -0.5,14.8333 -0.5,14.1667 -0.5,13.5C 28.4666,11.4878 57.4666,9.8211 86.5,8.5 Z"/></g>
<g><path style="opacity:1" fill="#100905" d="M 148.5,-0.5 C 156.833,-0.5 165.167,-0.5 173.5,-0.5C 172.876,1.50527 173.71,3.17194 176,4.5C 176.051,8.19122 174.884,8.35789 172.5,5C 170.934,4.23502 169.601,4.40168 168.5,5.5C 166.7,4.39477 165.533,5.06143 165,7.5C 164.5,6.33333 163.667,5.5 162.5,5C 164.901,4.195 164.734,3.36166 162,2.5C 161.147,4.12472 160.147,4.45805 159,3.5C 158.578,5.35529 158.078,7.18862 157.5,9C 162.033,16.7761 167.366,23.9428 173.5,30.5C 175.263,33.0196 177.263,35.3529 179.5,37.5C 179.5,38.5 179.5,39.5 179.5,40.5C 176.907,39.2464 174.573,37.5798 172.5,35.5C 170.262,30.9289 167.262,26.9289 163.5,23.5C 162.214,20.883 160.547,18.5496 158.5,16.5C 156.397,13.2802 154.064,10.2802 151.5,7.5C 150.499,4.82843 149.499,2.16177 148.5,-0.5 Z"/></g>
<g><path style="opacity:1" fill="#342817" d="M 151.5,7.5 C 154.064,10.2802 156.397,13.2802 158.5,16.5C 157.883,16.6107 157.383,16.944 157,17.5C 155.663,15.9963 153.996,14.9963 152,14.5C 148.918,14.9561 145.585,15.6228 142,16.5C 140.014,14.2585 137.514,13.2585 134.5,13.5C 132.014,14.1214 129.681,14.1214 127.5,13.5C 125.971,13.5288 124.804,14.1955 124,15.5C 120.079,13.2961 116.079,13.2961 112,15.5C 109.932,14.6064 107.765,13.9397 105.5,13.5C 101.742,14.6479 97.9088,14.6479 94,13.5C 93.6667,14.5 93.3333,15.5 93,16.5C 92.3292,15.7476 91.4959,15.4142 90.5,15.5C 90.5,14.8333 90.5,14.1667 90.5,13.5C 91.4695,12.3707 92.6362,11.3707 94,10.5C 97.395,10.8633 100.895,10.8633 104.5,10.5C 106.144,10.7135 107.644,10.3802 109,9.5C 109.667,10.1667 110.333,10.8333 111,11.5C 113.759,10.6766 116.593,10.0099 119.5,9.5C 121.055,9.72199 122.389,10.3887 123.5,11.5C 125.5,11.5 127.5,11.5 129.5,11.5C 134.757,10.8922 139.59,9.8922 144,8.5C 144.667,9.16667 145.333,9.83333 146,10.5C 148.018,9.77715 149.852,8.77715 151.5,7.5 Z"/></g>
<g><path style="opacity:1" fill="#3c2e1b" d="M 158.5,16.5 C 160.547,18.5496 162.214,20.883 163.5,23.5C 157.389,21.9254 151.889,22.5921 147,25.5C 145.915,24.7069 144.748,24.0402 143.5,23.5C 141.833,23.5 140.167,23.5 138.5,23.5C 137.167,24.1667 135.833,24.8333 134.5,25.5C 132.393,24.3632 130.227,23.3632 128,22.5C 125.916,22.6692 123.749,22.6692 121.5,22.5C 120.459,24.9913 119.626,24.9913 119,22.5C 118.667,22.8333 118.333,23.1667 118,23.5C 110.964,22.0127 103.964,21.346 97,21.5C 96.1475,23.1247 95.1475,23.4581 94,22.5C 92.9614,23.2438 92.4614,24.2438 92.5,25.5C 91.5578,25.0036 90.8911,23.6703 90.5,21.5C 91.7416,19.6112 91.7416,17.6112 90.5,15.5C 91.4959,15.4142 92.3292,15.7476 93,16.5C 93.3333,15.5 93.6667,14.5 94,13.5C 97.9088,14.6479 101.742,14.6479 105.5,13.5C 107.765,13.9397 109.932,14.6064 112,15.5C 116.079,13.2961 120.079,13.2961 124,15.5C 124.804,14.1955 125.971,13.5288 127.5,13.5C 129.681,14.1214 132.014,14.1214 134.5,13.5C 137.514,13.2585 140.014,14.2585 142,16.5C 145.585,15.6228 148.918,14.9561 152,14.5C 153.996,14.9963 155.663,15.9963 157,17.5C 157.383,16.944 157.883,16.6107 158.5,16.5 Z"/></g>
<g><path style="opacity:1" fill="#3c2c1a" d="M 89.5,13.5 C 89.8333,13.5 90.1667,13.5 90.5,13.5C 90.5,14.1667 90.5,14.8333 90.5,15.5C 91.7416,17.6112 91.7416,19.6112 90.5,21.5C 89.7109,21.2172 89.0442,20.7172 88.5,20C 85.4698,19.7118 82.6365,19.5451 80,19.5C 79.7104,21.0441 79.0437,22.3774 78,23.5C 75.9045,22.2845 76.0712,21.4512 78.5,21C 76.8333,20.3333 75.1667,20.3333 73.5,21C 72.1667,21.6667 72.1667,22.3333 73.5,23C 72.5,23.6667 71.5,23.6667 70.5,23C 71.2797,21.927 71.113,20.7604 70,19.5C 67.6837,20.5224 67.1837,22.0224 68.5,24C 67.552,24.4828 66.552,24.6495 65.5,24.5C 65.631,23.7611 65.4643,23.0944 65,22.5C 63.9887,23.3366 62.8221,23.67 61.5,23.5C 61.6602,21.8008 61.4935,20.1341 61,18.5C 60.5172,19.448 60.3505,20.448 60.5,21.5C 57.8015,21.5339 55.3015,20.8672 53,19.5C 52.6667,20.1667 52.3333,20.8333 52,21.5C 50.4667,21.0563 48.9667,20.723 47.5,20.5C 45.2754,24.0319 43.4421,24.0319 42,20.5C 41,21.8333 40,21.8333 39,20.5C 38.6667,21.5 38.3333,22.5 38,23.5C 37.6667,23.1667 37.3333,22.8333 37,22.5C 36.6924,23.3081 36.1924,23.9747 35.5,24.5C 34.5,23.1667 33.5,23.1667 32.5,24.5C 31.5224,24.0233 30.6891,23.3567 30,22.5C 25.2328,23.0129 20.0661,23.0129 14.5,22.5C 14.3932,20.6214 14.8932,20.2881 16,21.5C 18.9788,20.4527 21.8121,19.1194 24.5,17.5C 28.749,17.8005 32.9157,17.8005 37,17.5C 38.3333,18.1667 39.6667,18.8333 41,19.5C 42.9114,19.2549 44.9114,19.2549 47,19.5C 47.3333,18.8333 47.6667,18.1667 48,17.5C 48.6891,18.3567 49.5224,19.0233 50.5,19.5C 51.6956,19.1543 51.6956,18.6543 50.5,18C 54.6913,17.9262 58.6913,17.0929 62.5,15.5C 63.4255,16.6405 64.2588,16.6405 65,15.5C 65.3333,16.5 65.6667,17.5 66,18.5C 69.245,17.8576 72.4117,16.8576 75.5,15.5C 78.0819,17.0566 80.2485,16.7232 82,14.5C 84.0639,15.5914 86.2305,15.7581 88.5,15C 89.056,14.6174 89.3893,14.1174 89.5,13.5 Z"/></g>
<g><path style="opacity:1" fill="#362817" d="M 89.5,13.5 C 89.3893,14.1174 89.056,14.6174 88.5,15C 86.2305,15.7581 84.0639,15.5914 82,14.5C 80.2485,16.7232 78.0819,17.0566 75.5,15.5C 72.4117,16.8576 69.245,17.8576 66,18.5C 65.6667,17.5 65.3333,16.5 65,15.5C 64.2588,16.6405 63.4255,16.6405 62.5,15.5C 58.6913,17.0929 54.6913,17.9262 50.5,18C 51.6956,18.6543 51.6956,19.1543 50.5,19.5C 49.5224,19.0233 48.6891,18.3567 48,17.5C 47.6667,18.1667 47.3333,18.8333 47,19.5C 44.9114,19.2549 42.9114,19.2549 41,19.5C 39.6667,18.8333 38.3333,18.1667 37,17.5C 32.9157,17.8005 28.749,17.8005 24.5,17.5C 21.8121,19.1194 18.9788,20.4527 16,21.5C 14.8932,20.2881 14.3932,20.6214 14.5,22.5C 13.4819,21.7079 13.1486,20.0412 13.5,17.5C 11.323,17.5861 9.32298,18.2528 7.5,19.5C 5.93905,18.6527 4.43905,18.9861 3,20.5C 1.98873,19.6634 0.822066,19.33 -0.5,19.5C -0.5,18.1667 -0.5,16.8333 -0.5,15.5C 3.51772,14.329 7.51772,14.329 11.5,15.5C 13.3671,12.7709 14.3671,13.1043 14.5,16.5C 17.5455,16.6582 20.3788,15.9915 23,14.5C 23.6667,15.1667 24.3333,15.8333 25,16.5C 27.4554,15.0836 29.9554,14.7503 32.5,15.5C 34.7536,13.0267 36.9203,13.0267 39,15.5C 41.3905,13.4744 43.5572,13.4744 45.5,15.5C 46.6956,15.1543 46.6956,14.6543 45.5,14C 47.3289,13.7265 48.8289,12.8932 50,11.5C 52.6088,12.1276 55.2754,13.1276 58,14.5C 58.3333,13.8333 58.6667,13.1667 59,12.5C 61.0324,14.9047 62.5324,14.4047 63.5,11C 68.22,10.7787 72.8867,10.2787 77.5,9.5C 80.0393,10.1153 82.5393,10.7819 85,11.5C 85.3333,11.1667 85.6667,10.8333 86,10.5C 87.1036,11.3943 88.2702,12.3943 89.5,13.5 Z"/></g>
<g><path style="opacity:1" fill="#271a12" d="M 173.5,-0.5 C 175.5,-0.5 177.5,-0.5 179.5,-0.5C 179.5,12.1667 179.5,24.8333 179.5,37.5C 177.263,35.3529 175.263,33.0196 173.5,30.5C 173.539,29.4168 173.873,28.4168 174.5,27.5C 173.975,26.8076 173.308,26.3076 172.5,26C 174.891,24.6914 174.891,23.6914 172.5,23C 172.734,19.6256 172.734,16.2923 172.5,13C 170.503,10.8431 169.17,8.34311 168.5,5.5C 169.601,4.40168 170.934,4.23502 172.5,5C 174.884,8.35789 176.051,8.19122 176,4.5C 173.71,3.17194 172.876,1.50527 173.5,-0.5 Z"/></g>
<g><path style="opacity:1" fill="#433622" d="M 163.5,23.5 C 167.262,26.9289 170.262,30.9289 172.5,35.5C 167.444,35.6948 162.277,35.6948 157,35.5C 155.779,36.2718 154.779,37.2718 154,38.5C 152.333,37.1667 150.667,37.1667 149,38.5C 147.391,37.8534 145.891,37.02 144.5,36C 146.405,35.1739 146.739,34.0072 145.5,32.5C 144.097,32.3602 142.597,32.3602 141,32.5C 140.51,31.2068 140.343,29.8734 140.5,28.5C 139.209,28.2627 138.209,28.596 137.5,29.5C 133,29.1233 128.834,27.79 125,25.5C 124.333,26.8333 123.667,26.8333 123,25.5C 122.167,26.5 121.333,27.5 120.5,28.5C 119.304,28.1543 119.304,27.6543 120.5,27C 119.216,26.3162 118.049,26.4829 117,27.5C 116.692,26.6919 116.192,26.0253 115.5,25.5C 112.805,27.9429 110.305,27.6095 108,24.5C 107.581,25.6721 106.915,26.6721 106,27.5C 102.256,26.374 98.423,26.2073 94.5,27C 95.566,28.159 95.2327,28.9924 93.5,29.5C 93.7678,27.901 93.4345,26.5676 92.5,25.5C 92.4614,24.2438 92.9614,23.2438 94,22.5C 95.1475,23.4581 96.1475,23.1247 97,21.5C 103.964,21.346 110.964,22.0127 118,23.5C 118.333,23.1667 118.667,22.8333 119,22.5C 119.626,24.9913 120.459,24.9913 121.5,22.5C 123.749,22.6692 125.916,22.6692 128,22.5C 130.227,23.3632 132.393,24.3632 134.5,25.5C 135.833,24.8333 137.167,24.1667 138.5,23.5C 140.167,23.5 141.833,23.5 143.5,23.5C 144.748,24.0402 145.915,24.7069 147,25.5C 151.889,22.5921 157.389,21.9254 163.5,23.5 Z"/></g>
<g><path style="opacity:1" fill="#3f301d" d="M 14.5,22.5 C 20.0661,23.0129 25.2328,23.0129 30,22.5C 30.6891,23.3567 31.5224,24.0233 32.5,24.5C 33.5,23.1667 34.5,23.1667 35.5,24.5C 36.1924,23.9747 36.6924,23.3081 37,22.5C 37.3333,22.8333 37.6667,23.1667 38,23.5C 38.3333,22.5 38.6667,21.5 39,20.5C 40,21.8333 41,21.8333 42,20.5C 43.4421,24.0319 45.2754,24.0319 47.5,20.5C 48.9667,20.723 50.4667,21.0563 52,21.5C 52.3333,20.8333 52.6667,20.1667 53,19.5C 55.3015,20.8672 57.8015,21.5339 60.5,21.5C 60.3505,20.448 60.5172,19.448 61,18.5C 61.4935,20.1341 61.6602,21.8008 61.5,23.5C 62.8221,23.67 63.9887,23.3366 65,22.5C 65.4643,23.0944 65.631,23.7611 65.5,24.5C 65.2172,25.2891 64.7172,25.9558 64,26.5C 63.2613,25.4258 62.2613,24.7591 61,24.5C 57.7758,24.7183 54.6091,24.7183 51.5,24.5C 50.3774,25.5437 49.0441,26.2104 47.5,26.5C 42.877,26.1931 38.2103,25.8598 33.5,25.5C 32.5713,26.6888 32.238,28.0222 32.5,29.5C 31.325,29.719 30.325,29.3857 29.5,28.5C 30.1667,28.1667 30.8333,27.8333 31.5,27.5C 29.9563,25.5539 27.9563,25.0539 25.5,26C 26.1667,27.3333 27.1667,28.3333 28.5,29C 28,29.1667 27.5,29.3333 27,29.5C 25.6057,28.3867 24.439,27.0534 23.5,25.5C 21.8662,25.968 20.6995,26.968 20,28.5C 17.8433,25.9218 16.6767,25.9218 16.5,28.5C 15.914,28.2907 15.414,27.9574 15,27.5C 14.5899,28.9007 14.0899,30.234 13.5,31.5C 13.3263,39.4728 12.8263,39.4728 12,31.5C 10.1164,32.9769 8.11637,34.3102 6,35.5C 5.33333,32.8333 4.66667,32.8333 4,35.5C 2.50978,34.2721 1.00978,34.2721 -0.5,35.5C -0.5,30.1667 -0.5,24.8333 -0.5,19.5C 0.822066,19.33 1.98873,19.6634 3,20.5C 4.43905,18.9861 5.93905,18.6527 7.5,19.5C 9.32298,18.2528 11.323,17.5861 13.5,17.5C 13.1486,20.0412 13.4819,21.7079 14.5,22.5 Z"/></g>
<g><path style="opacity:1" fill="#423220" d="M 90.5,21.5 C 90.8911,23.6703 91.5578,25.0036 92.5,25.5C 93.4345,26.5676 93.7678,27.901 93.5,29.5C 94.7199,31.2837 94.7199,32.9504 93.5,34.5C 93.5858,33.5041 93.2524,32.6708 92.5,32C 90.1093,31.7132 87.7759,31.2132 85.5,30.5C 84.8333,30.8333 84.1667,31.1667 83.5,31.5C 81.0803,28.7997 78.0803,27.4664 74.5,27.5C 74.5,28.5 74.5,29.5 74.5,30.5C 71.001,30.741 70.6677,29.9076 73.5,28C 72.2068,27.51 70.8734,27.3433 69.5,27.5C 69.7163,29.6807 68.883,31.3474 67,32.5C 66.5172,31.552 66.3505,30.552 66.5,29.5C 65.0695,29.5792 63.7362,29.2458 62.5,28.5C 61.8076,29.0253 61.3076,29.6919 61,30.5C 60.044,29.1059 58.7106,28.4393 57,28.5C 54.4161,29.6489 51.7494,30.6489 49,31.5C 48.2613,30.4258 47.2613,29.7591 46,29.5C 43.9293,30.8207 41.9293,31.8207 40,32.5C 36.306,31.8035 32.6393,31.4702 29,31.5C 28,32.1667 27,32.8333 26,33.5C 24.3813,32.917 22.548,32.917 20.5,33.5C 19.5286,30.8661 17.6952,30.8661 15,33.5C 14.7216,32.5842 14.2216,31.9175 13.5,31.5C 14.0899,30.234 14.5899,28.9007 15,27.5C 15.414,27.9574 15.914,28.2907 16.5,28.5C 16.6767,25.9218 17.8433,25.9218 20,28.5C 20.6995,26.968 21.8662,25.968 23.5,25.5C 24.439,27.0534 25.6057,28.3867 27,29.5C 27.5,29.3333 28,29.1667 28.5,29C 27.1667,28.3333 26.1667,27.3333 25.5,26C 27.9563,25.0539 29.9563,25.5539 31.5,27.5C 30.8333,27.8333 30.1667,28.1667 29.5,28.5C 30.325,29.3857 31.325,29.719 32.5,29.5C 32.238,28.0222 32.5713,26.6888 33.5,25.5C 38.2103,25.8598 42.877,26.1931 47.5,26.5C 49.0441,26.2104 50.3774,25.5437 51.5,24.5C 54.6091,24.7183 57.7758,24.7183 61,24.5C 62.2613,24.7591 63.2613,25.4258 64,26.5C 64.7172,25.9558 65.2172,25.2891 65.5,24.5C 66.552,24.6495 67.552,24.4828 68.5,24C 67.1837,22.0224 67.6837,20.5224 70,19.5C 71.113,20.7604 71.2797,21.927 70.5,23C 71.5,23.6667 72.5,23.6667 73.5,23C 72.1667,22.3333 72.1667,21.6667 73.5,21C 75.1667,20.3333 76.8333,20.3333 78.5,21C 76.0712,21.4512 75.9045,22.2845 78,23.5C 79.0437,22.3774 79.7104,21.0441 80,19.5C 82.6365,19.5451 85.4698,19.7118 88.5,20C 89.0442,20.7172 89.7109,21.2172 90.5,21.5 Z"/></g>
<g><path style="opacity:1" fill="#483826" d="M 93.5,34.5 C 89.4322,33.8893 85.5989,34.8893 82,37.5C 81.2747,35.842 80.108,35.342 78.5,36C 78.8333,36.3333 79.1667,36.6667 79.5,37C 77.2637,37.2645 75.2637,38.0979 73.5,39.5C 70.1765,38.5181 67.1765,38.8514 64.5,40.5C 63.1861,39.6872 62.0195,38.6872 61,37.5C 60.6667,38.1667 60.3333,38.8333 60,39.5C 59.5045,37.5273 59.3379,35.5273 59.5,33.5C 60.552,33.6495 61.552,33.4828 62.5,33C 60.4787,32.8598 58.6453,32.6932 57,32.5C 55.2151,33.2401 53.3817,33.9067 51.5,34.5C 47.3002,33.2204 43.1336,33.2204 39,34.5C 38.5172,35.448 38.3505,36.448 38.5,37.5C 36.8002,37.3739 35.3002,36.7073 34,35.5C 29.5257,35.8162 25.0257,35.8162 20.5,35.5C 20.2155,37.8771 20.2155,40.0438 20.5,42C 18.8807,42.2355 17.8807,43.0689 17.5,44.5C 15.4508,44.2942 15.1175,43.4609 16.5,42C 15.5,41.3333 14.5,41.3333 13.5,42C 12.7256,44.405 12.2256,46.905 12,49.5C 11.5065,47.8659 11.3398,46.1992 11.5,44.5C 8.10195,44.8583 4.93528,44.1916 2,42.5C 1.09789,42.7432 0.264561,43.0766 -0.5,43.5C -0.5,40.8333 -0.5,38.1667 -0.5,35.5C 1.00978,34.2721 2.50978,34.2721 4,35.5C 4.66667,32.8333 5.33333,32.8333 6,35.5C 8.11637,34.3102 10.1164,32.9769 12,31.5C 12.8263,39.4728 13.3263,39.4728 13.5,31.5C 14.2216,31.9175 14.7216,32.5842 15,33.5C 17.6952,30.8661 19.5286,30.8661 20.5,33.5C 22.548,32.917 24.3813,32.917 26,33.5C 27,32.8333 28,32.1667 29,31.5C 32.6393,31.4702 36.306,31.8035 40,32.5C 41.9293,31.8207 43.9293,30.8207 46,29.5C 47.2613,29.7591 48.2613,30.4258 49,31.5C 51.7494,30.6489 54.4161,29.6489 57,28.5C 58.7106,28.4393 60.044,29.1059 61,30.5C 61.3076,29.6919 61.8076,29.0253 62.5,28.5C 63.7362,29.2458 65.0695,29.5792 66.5,29.5C 66.3505,30.552 66.5172,31.552 67,32.5C 68.883,31.3474 69.7163,29.6807 69.5,27.5C 70.8734,27.3433 72.2068,27.51 73.5,28C 70.6677,29.9076 71.001,30.741 74.5,30.5C 74.5,29.5 74.5,28.5 74.5,27.5C 78.0803,27.4664 81.0803,28.7997 83.5,31.5C 84.1667,31.1667 84.8333,30.8333 85.5,30.5C 87.7759,31.2132 90.1093,31.7132 92.5,32C 93.2524,32.6708 93.5858,33.5041 93.5,34.5 Z"/></g>
<g><path style="opacity:1" fill="#4a3a27" d="M 137.5,29.5 C 137.631,30.2389 137.464,30.9056 137,31.5C 136.107,30.2888 135.274,30.2888 134.5,31.5C 135,32.5 135.5,33.5 136,34.5C 136.333,34.1667 136.667,33.8333 137,33.5C 137.749,34.635 137.583,35.635 136.5,36.5C 134.566,36.0995 133.066,35.0995 132,33.5C 130.392,35.0996 128.559,36.433 126.5,37.5C 124.883,36.3576 123.05,35.691 121,35.5C 116.383,36.8124 112.049,36.8124 108,35.5C 106.352,36.717 104.519,37.5503 102.5,38C 101.874,38.7504 101.374,39.5838 101,40.5C 99.7318,40.3842 98.3985,40.0509 97,39.5C 96.7679,40.7375 96.2679,41.7375 95.5,42.5C 90.2412,42.2312 85.0745,41.5646 80,40.5C 79.6174,41.056 79.1174,41.3893 78.5,41.5C 77.3646,39.7868 75.698,39.1201 73.5,39.5C 75.2637,38.0979 77.2637,37.2645 79.5,37C 79.1667,36.6667 78.8333,36.3333 78.5,36C 80.108,35.342 81.2747,35.842 82,37.5C 85.5989,34.8893 89.4322,33.8893 93.5,34.5C 94.7199,32.9504 94.7199,31.2837 93.5,29.5C 95.2327,28.9924 95.566,28.159 94.5,27C 98.423,26.2073 102.256,26.374 106,27.5C 106.915,26.6721 107.581,25.6721 108,24.5C 110.305,27.6095 112.805,27.9429 115.5,25.5C 116.192,26.0253 116.692,26.6919 117,27.5C 118.049,26.4829 119.216,26.3162 120.5,27C 119.304,27.6543 119.304,28.1543 120.5,28.5C 121.333,27.5 122.167,26.5 123,25.5C 123.667,26.8333 124.333,26.8333 125,25.5C 128.834,27.79 133,29.1233 137.5,29.5 Z"/></g>
<g><path style="opacity:1" fill="#4e3f26" d="M 73.5,39.5 C 75.698,39.1201 77.3646,39.7868 78.5,41.5C 76.1278,42.9137 73.9612,42.5803 72,40.5C 71.6924,41.3081 71.1924,41.9747 70.5,42.5C 68.0075,42.4003 65.5075,42.067 63,41.5C 60.5707,44.4136 57.5707,44.7469 54,42.5C 53.3333,43.1667 52.6667,43.8333 52,44.5C 48.7761,44.7008 45.4428,44.3674 42,43.5C 41.3109,44.3567 40.4776,45.0233 39.5,45.5C 37.6837,44.2651 36.017,44.2651 34.5,45.5C 33.1751,46.9526 32.3418,46.6192 32,44.5C 30.3333,45.8333 28.6667,45.8333 27,44.5C 25.8465,50.3968 24.1798,50.7301 22,45.5C 21.6667,45.8333 21.3333,46.1667 21,46.5C 20.2904,45.0267 19.1238,44.3601 17.5,44.5C 17.8807,43.0689 18.8807,42.2355 20.5,42C 20.2155,40.0438 20.2155,37.8771 20.5,35.5C 25.0257,35.8162 29.5257,35.8162 34,35.5C 35.3002,36.7073 36.8002,37.3739 38.5,37.5C 38.3505,36.448 38.5172,35.448 39,34.5C 43.1336,33.2204 47.3002,33.2204 51.5,34.5C 53.3817,33.9067 55.2151,33.2401 57,32.5C 58.6453,32.6932 60.4787,32.8598 62.5,33C 61.552,33.4828 60.552,33.6495 59.5,33.5C 59.3379,35.5273 59.5045,37.5273 60,39.5C 60.3333,38.8333 60.6667,38.1667 61,37.5C 62.0195,38.6872 63.1861,39.6872 64.5,40.5C 67.1765,38.8514 70.1765,38.5181 73.5,39.5 Z"/></g>
<g><path style="opacity:1" fill="#51432a" d="M 172.5,35.5 C 174.573,37.5798 176.907,39.2464 179.5,40.5C 179.5,40.8333 179.5,41.1667 179.5,41.5C 173.62,41.6251 167.62,42.1251 161.5,43C 160.975,43.6924 160.308,44.1924 159.5,44.5C 157.958,43.2532 156.458,43.2532 155,44.5C 153.501,42.2438 151.834,42.2438 150,44.5C 148.351,43.1023 147.018,43.4356 146,45.5C 145.667,44.8333 145.333,44.1667 145,43.5C 139.665,44.0722 134.165,44.0722 128.5,43.5C 124.849,45.2111 121.182,45.8777 117.5,45.5C 116.778,45.0825 116.278,44.4158 116,43.5C 114.378,44.0989 112.878,44.7656 111.5,45.5C 106.881,44.6864 102.214,44.3531 97.5,44.5C 97.6495,45.552 97.4828,46.552 97,47.5C 95.7308,46.0953 95.2308,44.4286 95.5,42.5C 96.2679,41.7375 96.7679,40.7375 97,39.5C 98.3985,40.0509 99.7318,40.3842 101,40.5C 101.374,39.5838 101.874,38.7504 102.5,38C 104.519,37.5503 106.352,36.717 108,35.5C 112.049,36.8124 116.383,36.8124 121,35.5C 123.05,35.691 124.883,36.3576 126.5,37.5C 128.559,36.433 130.392,35.0996 132,33.5C 133.066,35.0995 134.566,36.0995 136.5,36.5C 137.583,35.635 137.749,34.635 137,33.5C 136.667,33.8333 136.333,34.1667 136,34.5C 135.5,33.5 135,32.5 134.5,31.5C 135.274,30.2888 136.107,30.2888 137,31.5C 137.464,30.9056 137.631,30.2389 137.5,29.5C 138.209,28.596 139.209,28.2627 140.5,28.5C 140.343,29.8734 140.51,31.2068 141,32.5C 142.597,32.3602 144.097,32.3602 145.5,32.5C 146.739,34.0072 146.405,35.1739 144.5,36C 145.891,37.02 147.391,37.8534 149,38.5C 150.667,37.1667 152.333,37.1667 154,38.5C 154.779,37.2718 155.779,36.2718 157,35.5C 162.277,35.6948 167.444,35.6948 172.5,35.5 Z"/></g>
<g><path style="opacity:1" fill="#55462d" d="M 78.5,41.5 C 79.1174,41.3893 79.6174,41.056 80,40.5C 85.0745,41.5646 90.2412,42.2312 95.5,42.5C 95.2308,44.4286 95.7308,46.0953 97,47.5C 97.4828,46.552 97.6495,45.552 97.5,44.5C 102.214,44.3531 106.881,44.6864 111.5,45.5C 111.5,45.8333 111.5,46.1667 111.5,46.5C 106.079,49.0461 100.413,50.7127 94.5,51.5C 92.8333,51.5 91.1667,51.5 89.5,51.5C 84.6027,50.1205 79.6027,49.1205 74.5,48.5C 70.6888,47.3547 66.6888,47.1881 62.5,48C 60.8753,48.8525 60.5419,49.8525 61.5,51C 60.1221,52.3342 58.7887,52.5009 57.5,51.5C 55.5891,51.4257 54.4224,50.4257 54,48.5C 48.7719,47.6057 43.6053,47.6057 38.5,48.5C 37.7886,46.7986 36.4553,45.7986 34.5,45.5C 36.017,44.2651 37.6837,44.2651 39.5,45.5C 40.4776,45.0233 41.3109,44.3567 42,43.5C 45.4428,44.3674 48.7761,44.7008 52,44.5C 52.6667,43.8333 53.3333,43.1667 54,42.5C 57.5707,44.7469 60.5707,44.4136 63,41.5C 65.5075,42.067 68.0075,42.4003 70.5,42.5C 71.1924,41.9747 71.6924,41.3081 72,40.5C 73.9612,42.5803 76.1278,42.9137 78.5,41.5 Z"/></g>
<g><path style="opacity:1" fill="#5a4c32" d="M 179.5,41.5 C 179.5,42.8333 179.5,44.1667 179.5,45.5C 177.103,45.5954 174.603,45.9287 172,46.5C 170.946,47.4824 170.446,48.6491 170.5,50C 165.371,49.6168 160.204,50.1168 155,51.5C 151.622,49.3286 147.955,47.9953 144,47.5C 143.667,48.8333 143.333,50.1667 143,51.5C 142.309,49.1088 141.309,49.1088 140,51.5C 137.841,50.8033 135.674,51.1366 133.5,52.5C 130.24,51.3098 126.573,50.4764 122.5,50C 119.885,49.3881 118.219,47.8881 117.5,45.5C 121.182,45.8777 124.849,45.2111 128.5,43.5C 134.165,44.0722 139.665,44.0722 145,43.5C 145.333,44.1667 145.667,44.8333 146,45.5C 147.018,43.4356 148.351,43.1023 150,44.5C 151.834,42.2438 153.501,42.2438 155,44.5C 156.458,43.2532 157.958,43.2532 159.5,44.5C 160.308,44.1924 160.975,43.6924 161.5,43C 167.62,42.1251 173.62,41.6251 179.5,41.5 Z"/></g>
<g><path style="opacity:1" fill="#ac7363" d="M 111.5,47.5 C 114.47,47.7458 115.803,49.4124 115.5,52.5C 114.099,52.0291 112.766,51.3624 111.5,50.5C 110.347,49.3132 110.347,48.3132 111.5,47.5 Z"/></g>
<g><path style="opacity:1" fill="#54442e" d="M 17.5,44.5 C 19.1238,44.3601 20.2904,45.0267 21,46.5C 21.3333,46.1667 21.6667,45.8333 22,45.5C 24.1798,50.7301 25.8465,50.3968 27,44.5C 28.6667,45.8333 30.3333,45.8333 32,44.5C 32.3418,46.6192 33.1751,46.9526 34.5,45.5C 36.4553,45.7986 37.7886,46.7986 38.5,48.5C 36.1727,48.2471 34.1727,48.9137 32.5,50.5C 32.9377,51.5063 33.6043,51.5063 34.5,50.5C 35.3857,51.325 35.719,52.325 35.5,53.5C 31.0944,53.6475 26.761,54.3141 22.5,55.5C 19.2281,53.5633 16.2281,54.2299 13.5,57.5C 13.7254,59.7159 12.8921,61.3826 11,62.5C 10.8265,58.4592 10.3265,54.4592 9.5,50.5C 7.9522,48.0776 6.28553,48.0776 4.5,50.5C 3.91395,50.2907 3.41395,49.9574 3,49.5C 2.46662,51.9386 1.29995,52.6052 -0.5,51.5C -0.5,48.8333 -0.5,46.1667 -0.5,43.5C 0.264561,43.0766 1.09789,42.7432 2,42.5C 4.93528,44.1916 8.10195,44.8583 11.5,44.5C 11.3398,46.1992 11.5065,47.8659 12,49.5C 12.2256,46.905 12.7256,44.405 13.5,42C 14.5,41.3333 15.5,41.3333 16.5,42C 15.1175,43.4609 15.4508,44.2942 17.5,44.5 Z"/></g>
<g><path style="opacity:1" fill="#614e36" d="M 117.5,45.5 C 118.219,47.8881 119.885,49.3881 122.5,50C 126.573,50.4764 130.24,51.3098 133.5,52.5C 135.674,51.1366 137.841,50.8033 140,51.5C 141.309,49.1088 142.309,49.1088 143,51.5C 143.333,50.1667 143.667,48.8333 144,47.5C 147.955,47.9953 151.622,49.3286 155,51.5C 160.204,50.1168 165.371,49.6168 170.5,50C 170.446,48.6491 170.946,47.4824 172,46.5C 174.603,45.9287 177.103,45.5954 179.5,45.5C 179.5,46.8333 179.5,48.1667 179.5,49.5C 175.022,51.2686 170.356,52.6019 165.5,53.5C 163.772,53.4099 162.106,53.0766 160.5,52.5C 156.059,52.8165 151.892,53.8165 148,55.5C 145.516,52.7406 144.35,53.074 144.5,56.5C 143.178,56.67 142.011,56.3366 141,55.5C 137.2,56.6305 133.533,57.2972 130,57.5C 129.667,56.8333 129.333,56.1667 129,55.5C 127.539,57.9818 126.039,57.9818 124.5,55.5C 123.833,54.8333 123.167,54.1667 122.5,53.5C 119.729,51.233 117.062,48.733 114.5,46C 113.552,45.5172 112.552,45.3505 111.5,45.5C 112.878,44.7656 114.378,44.0989 116,43.5C 116.278,44.4158 116.778,45.0825 117.5,45.5 Z"/></g>
<g><path style="opacity:1" fill="#aa917a" d="M 74.5,48.5 C 79.6027,49.1205 84.6027,50.1205 89.5,51.5C 83.5368,53.0917 77.7035,52.4251 72,49.5C 70.3651,49.8777 68.8651,50.5444 67.5,51.5C 69.0115,51.3418 70.6782,51.6751 72.5,52.5C 72.2739,55.2492 72.6072,57.9159 73.5,60.5C 72.3112,61.4287 70.9778,61.762 69.5,61.5C 67.6412,60.1522 65.6412,58.9855 63.5,58C 64.1667,57.3333 64.8333,56.6667 65.5,56C 65.1459,54.3745 65.1459,52.5412 65.5,50.5C 68.3033,49.0721 71.3033,48.4054 74.5,48.5 Z"/></g>
<g><path style="opacity:1" fill="#594b31" d="M 57.5,51.5 C 55.1877,53.636 52.6877,55.636 50,57.5C 48.6015,56.9491 47.2682,56.6158 46,56.5C 45.6667,57.1667 45.3333,57.8333 45,58.5C 43.5263,55.6751 42.0263,55.3418 40.5,57.5C 39.914,57.2907 39.414,56.9574 39,56.5C 36.6877,56.9551 34.6877,57.9551 33,59.5C 32.3261,58.4216 31.3261,57.7549 30,57.5C 25.6656,57.7458 21.1656,58.4125 16.5,59.5C 15.2613,59.0576 14.2613,58.3909 13.5,57.5C 16.2281,54.2299 19.2281,53.5633 22.5,55.5C 26.761,54.3141 31.0944,53.6475 35.5,53.5C 35.719,52.325 35.3857,51.325 34.5,50.5C 33.6043,51.5063 32.9377,51.5063 32.5,50.5C 34.1727,48.9137 36.1727,48.2471 38.5,48.5C 43.6053,47.6057 48.7719,47.6057 54,48.5C 54.4224,50.4257 55.5891,51.4257 57.5,51.5 Z"/></g>
<g><path style="opacity:1" fill="#5e4d35" d="M 74.5,48.5 C 71.3033,48.4054 68.3033,49.0721 65.5,50.5C 62.1092,51.5293 59.4426,53.5293 57.5,56.5C 55.457,57.5794 54.1237,59.246 53.5,61.5C 53.1667,61.5 52.8333,61.5 52.5,61.5C 49.7039,61.4898 46.7039,61.8231 43.5,62.5C 41.0554,62.5971 38.8887,61.9304 37,60.5C 34.0568,62.2787 31.0568,62.9454 28,62.5C 26.1724,60.1927 24.5057,60.526 23,63.5C 21.3064,59.6045 20.1398,59.9378 19.5,64.5C 17.1667,63.1667 14.8333,63.1667 12.5,64.5C 11.3219,67.3908 10.6553,70.3908 10.5,73.5C 10.1667,74.8333 9.83333,76.1667 9.5,77.5C 9.5,79.1667 9.5,80.8333 9.5,82.5C 9.09392,76.6767 8.92725,70.6767 9,64.5C 7.14901,66.7811 5.48235,66.7811 4,64.5C 3.33333,65.1667 2.66667,65.8333 2,66.5C 1.32924,65.7476 0.495904,65.4142 -0.5,65.5C -0.5,60.8333 -0.5,56.1667 -0.5,51.5C 1.29995,52.6052 2.46662,51.9386 3,49.5C 3.41395,49.9574 3.91395,50.2907 4.5,50.5C 6.28553,48.0776 7.9522,48.0776 9.5,50.5C 10.3265,54.4592 10.8265,58.4592 11,62.5C 12.8921,61.3826 13.7254,59.7159 13.5,57.5C 14.2613,58.3909 15.2613,59.0576 16.5,59.5C 21.1656,58.4125 25.6656,57.7458 30,57.5C 31.3261,57.7549 32.3261,58.4216 33,59.5C 34.6877,57.9551 36.6877,56.9551 39,56.5C 39.414,56.9574 39.914,57.2907 40.5,57.5C 42.0263,55.3418 43.5263,55.6751 45,58.5C 45.3333,57.8333 45.6667,57.1667 46,56.5C 47.2682,56.6158 48.6015,56.9491 50,57.5C 52.6877,55.636 55.1877,53.636 57.5,51.5C 58.7887,52.5009 60.1221,52.3342 61.5,51C 60.5419,49.8525 60.8753,48.8525 62.5,48C 66.6888,47.1881 70.6888,47.3547 74.5,48.5 Z"/></g>
<g><path style="opacity:1" fill="#d2b298" d="M 111.5,45.5 C 112.552,45.3505 113.552,45.5172 114.5,46C 117.062,48.733 119.729,51.233 122.5,53.5C 122.5,54.5 122.5,55.5 122.5,56.5C 117.78,56.2254 117.446,57.0588 121.5,59C 120.542,60.1475 120.875,61.1475 122.5,62C 121.906,62.4643 121.239,62.631 120.5,62.5C 118.5,59.8333 116.167,57.5 113.5,55.5C 114.263,54.7321 115.263,54.2321 116.5,54C 115.944,53.6174 115.611,53.1174 115.5,52.5C 115.803,49.4124 114.47,47.7458 111.5,47.5C 111.5,47.1667 111.5,46.8333 111.5,46.5C 111.5,46.1667 111.5,45.8333 111.5,45.5 Z"/></g>
<g><path style="opacity:1" fill="#69543d" d="M 179.5,49.5 C 179.5,52.5 179.5,55.5 179.5,58.5C 178.739,57.6091 177.739,56.9424 176.5,56.5C 174.895,57.4303 173.395,57.4303 172,56.5C 171.085,57.3279 170.419,58.3279 170,59.5C 168.096,58.8984 166.263,59.3984 164.5,61C 157.169,61.1763 150.002,61.0097 143,60.5C 141.006,61.6642 138.839,62.3308 136.5,62.5C 133.073,61.9265 129.739,61.9265 126.5,62.5C 125.824,61.3984 125.158,60.3984 124.5,59.5C 123.167,58.1667 123.167,56.8333 124.5,55.5C 126.039,57.9818 127.539,57.9818 129,55.5C 129.333,56.1667 129.667,56.8333 130,57.5C 133.533,57.2972 137.2,56.6305 141,55.5C 142.011,56.3366 143.178,56.67 144.5,56.5C 144.35,53.074 145.516,52.7406 148,55.5C 151.892,53.8165 156.059,52.8165 160.5,52.5C 162.106,53.0766 163.772,53.4099 165.5,53.5C 170.356,52.6019 175.022,51.2686 179.5,49.5 Z"/></g>
<g><path style="opacity:1" fill="#965e4f" d="M 72.5,52.5 C 73.8333,52.5 75.1667,52.5 76.5,52.5C 76.3059,55.3297 75.6392,57.9963 74.5,60.5C 74.719,61.675 74.3857,62.675 73.5,63.5C 72.2638,62.7542 70.9305,62.4208 69.5,62.5C 69.5,62.1667 69.5,61.8333 69.5,61.5C 70.9778,61.762 72.3112,61.4287 73.5,60.5C 72.6072,57.9159 72.2739,55.2492 72.5,52.5 Z"/></g>
<g><path style="opacity:1" fill="#b09076" d="M 122.5,53.5 C 123.167,54.1667 123.833,54.8333 124.5,55.5C 123.167,56.8333 123.167,58.1667 124.5,59.5C 124.261,61.4672 124.594,63.3005 125.5,65C 124.584,65.2784 123.918,65.7784 123.5,66.5C 122.272,65.6935 121.272,64.6935 120.5,63.5C 120.5,63.1667 120.5,62.8333 120.5,62.5C 121.239,62.631 121.906,62.4643 122.5,62C 120.875,61.1475 120.542,60.1475 121.5,59C 117.446,57.0588 117.78,56.2254 122.5,56.5C 122.5,55.5 122.5,54.5 122.5,53.5 Z"/></g>
<g><path style="opacity:1" fill="#eed8c4" d="M 113.5,55.5 C 113.277,58.5089 112.277,61.1756 110.5,63.5C 108.602,64.0965 106.935,64.0965 105.5,63.5C 104.84,61.6563 103.84,59.9896 102.5,58.5C 102.529,56.9707 103.196,55.804 104.5,55C 102.714,54.8038 101.381,53.9705 100.5,52.5C 103.106,51.3483 105.773,51.1816 108.5,52C 109.846,53.6692 111.513,54.8358 113.5,55.5 Z"/></g>
<g><path style="opacity:1" fill="#e5ccb5" d="M 111.5,46.5 C 111.5,46.8333 111.5,47.1667 111.5,47.5C 110.347,48.3132 110.347,49.3132 111.5,50.5C 112.766,51.3624 114.099,52.0291 115.5,52.5C 115.611,53.1174 115.944,53.6174 116.5,54C 115.263,54.2321 114.263,54.7321 113.5,55.5C 111.513,54.8358 109.846,53.6692 108.5,52C 105.773,51.1816 103.106,51.3483 100.5,52.5C 101.381,53.9705 102.714,54.8038 104.5,55C 103.196,55.804 102.529,56.9707 102.5,58.5C 103.84,59.9896 104.84,61.6563 105.5,63.5C 104.333,62.1852 102.833,61.5186 101,61.5C 97.1014,63.2505 93.2681,64.9172 89.5,66.5C 89.1667,66.5 88.8333,66.5 88.5,66.5C 85.1589,66.6559 82.3255,67.9892 80,70.5C 79.9822,68.2028 80.1489,65.8695 80.5,63.5C 79.448,63.6495 78.448,63.4828 77.5,63C 79.019,61.6487 80.3523,60.1487 81.5,58.5C 79.1638,57.4061 79.1638,56.0728 81.5,54.5C 86.0423,53.9022 90.3756,52.9022 94.5,51.5C 100.413,50.7127 106.079,49.0461 111.5,46.5 Z"/></g>
<g><path style="opacity:1" fill="#705b42" d="M 179.5,58.5 C 179.5,60.5 179.5,62.5 179.5,64.5C 177.549,64.2267 176.049,64.8934 175,66.5C 170.69,64.4711 166.19,64.4711 161.5,66.5C 157.22,65.8051 153.053,65.4718 149,65.5C 148,66.1667 147,66.8333 146,67.5C 143.667,66.8333 141.333,66.1667 139,65.5C 138.25,66.1258 137.416,66.6258 136.5,67C 132.514,67.4988 128.514,67.6655 124.5,67.5C 123.833,67.5 123.5,67.1667 123.5,66.5C 123.918,65.7784 124.584,65.2784 125.5,65C 124.594,63.3005 124.261,61.4672 124.5,59.5C 125.158,60.3984 125.824,61.3984 126.5,62.5C 129.739,61.9265 133.073,61.9265 136.5,62.5C 138.839,62.3308 141.006,61.6642 143,60.5C 150.002,61.0097 157.169,61.1763 164.5,61C 166.263,59.3984 168.096,58.8984 170,59.5C 170.419,58.3279 171.085,57.3279 172,56.5C 173.395,57.4303 174.895,57.4303 176.5,56.5C 177.739,56.9424 178.739,57.6091 179.5,58.5 Z"/></g>
<g><path style="opacity:1" fill="#a8937d" d="M 57.5,56.5 C 58.0065,57.8589 59.0065,58.8589 60.5,59.5C 59.1468,60.5237 58.4802,61.857 58.5,63.5C 59.9778,63.238 61.3112,63.5713 62.5,64.5C 61.3703,65.7836 60.037,66.617 58.5,67C 59.9878,70.3263 59.8211,73.4929 58,76.5C 57.834,72.6695 57.0007,69.0028 55.5,65.5C 56.7052,63.8791 56.5385,62.5458 55,61.5C 54.2208,64.0972 53.7208,64.0972 53.5,61.5C 54.1237,59.246 55.457,57.5794 57.5,56.5 Z"/></g>
<g><path style="opacity:1" fill="#dec5ae" d="M 113.5,55.5 C 116.167,57.5 118.5,59.8333 120.5,62.5C 120.5,62.8333 120.5,63.1667 120.5,63.5C 120.264,65.9732 118.931,67.6399 116.5,68.5C 115.571,67.3112 115.238,65.9778 115.5,64.5C 113.708,64.634 112.042,64.3007 110.5,63.5C 112.277,61.1756 113.277,58.5089 113.5,55.5 Z"/></g>
<g><path style="opacity:1" fill="#776149" d="M 179.5,64.5 C 179.5,65.8333 179.5,67.1667 179.5,68.5C 176.592,69.1593 176.258,69.9926 178.5,71C 174.808,73.0548 170.975,73.5548 167,72.5C 163.66,73.6283 161.16,74.9616 159.5,76.5C 156.596,74.4739 153.596,74.6406 150.5,77C 148,77.1667 145.5,77.3333 143,77.5C 137.141,76.5665 131.308,76.3998 125.5,77C 124.556,74.2809 124.223,71.4475 124.5,68.5C 124.5,68.1667 124.5,67.8333 124.5,67.5C 128.514,67.6655 132.514,67.4988 136.5,67C 137.416,66.6258 138.25,66.1258 139,65.5C 141.333,66.1667 143.667,66.8333 146,67.5C 147,66.8333 148,66.1667 149,65.5C 153.053,65.4718 157.22,65.8051 161.5,66.5C 166.19,64.4711 170.69,64.4711 175,66.5C 176.049,64.8934 177.549,64.2267 179.5,64.5 Z"/></g>
<g><path style="opacity:1" fill="#957f6a" d="M 65.5,50.5 C 65.1459,52.5412 65.1459,54.3745 65.5,56C 64.8333,56.6667 64.1667,57.3333 63.5,58C 65.6412,58.9855 67.6412,60.1522 69.5,61.5C 69.5,61.8333 69.5,62.1667 69.5,62.5C 69.1667,62.5 68.8333,62.5 68.5,62.5C 67.5041,62.4142 66.6708,62.7476 66,63.5C 65.6667,64.8333 65.3333,66.1667 65,67.5C 64.5488,65.0712 63.7155,64.9045 62.5,67C 62.8333,67.3333 63.1667,67.6667 63.5,68C 62.5,68.3333 61.5,68.6667 60.5,69C 61.91,69.3678 62.91,70.2011 63.5,71.5C 62.3995,73.6416 61.3995,75.8083 60.5,78C 62.299,79.0363 63.9657,79.2029 65.5,78.5C 64.8333,80.5 64.1667,82.5 63.5,84.5C 62.7611,84.631 62.0944,84.4643 61.5,84C 60.9707,81.5714 59.6374,79.7381 57.5,78.5C 56.7154,74.0496 55.5487,69.7163 54,65.5C 53.3131,67.5675 53.4798,69.5675 54.5,71.5C 53.4508,74.0452 52.4508,74.0452 51.5,71.5C 51.3424,68.0977 51.6758,64.7644 52.5,61.5C 52.8333,61.5 53.1667,61.5 53.5,61.5C 53.7208,64.0972 54.2208,64.0972 55,61.5C 56.5385,62.5458 56.7052,63.8791 55.5,65.5C 57.0007,69.0028 57.834,72.6695 58,76.5C 59.8211,73.4929 59.9878,70.3263 58.5,67C 60.037,66.617 61.3703,65.7836 62.5,64.5C 61.3112,63.5713 59.9778,63.238 58.5,63.5C 58.4802,61.857 59.1468,60.5237 60.5,59.5C 59.0065,58.8589 58.0065,57.8589 57.5,56.5C 59.4426,53.5293 62.1092,51.5293 65.5,50.5 Z"/></g>
<g><path style="opacity:1" fill="#cfb298" d="M 105.5,63.5 C 106.935,64.0965 108.602,64.0965 110.5,63.5C 112.042,64.3007 113.708,64.634 115.5,64.5C 115.238,65.9778 115.571,67.3112 116.5,68.5C 118.931,67.6399 120.264,65.9732 120.5,63.5C 121.272,64.6935 122.272,65.6935 123.5,66.5C 123.5,67.1667 123.833,67.5 124.5,67.5C 124.5,67.8333 124.5,68.1667 124.5,68.5C 123.563,71.9753 122.23,75.3086 120.5,78.5C 120.5,77.1667 120.5,75.8333 120.5,74.5C 117.874,73.5785 115.207,72.5785 112.5,71.5C 111.416,72.6651 110.583,73.9984 110,75.5C 108.033,73.449 105.866,71.7823 103.5,70.5C 105.167,70.5 106.833,70.5 108.5,70.5C 110.5,70.5 112.5,70.5 114.5,70.5C 114.621,67.4591 113.121,65.7924 110,65.5C 106.895,66.3672 103.728,66.7006 100.5,66.5C 100.527,68.1993 101.194,69.5326 102.5,70.5C 100.097,70.448 97.7638,70.7814 95.5,71.5C 94.7124,68.3791 92.7124,66.7124 89.5,66.5C 93.2681,64.9172 97.1014,63.2505 101,61.5C 102.833,61.5186 104.333,62.1852 105.5,63.5 Z"/></g>
<g><path style="opacity:1" fill="#6b553e" d="M 52.5,61.5 C 51.6758,64.7644 51.3424,68.0977 51.5,71.5C 49.0327,71.8581 46.866,73.1914 45,75.5C 41.3639,72.3434 37.1973,71.6767 32.5,73.5C 28.9197,69.6352 25.4197,69.6352 22,73.5C 21.7787,70.0569 20.7787,69.7236 19,72.5C 18.586,72.0426 18.086,71.7093 17.5,71.5C 15.4775,73.1733 13.1441,73.8399 10.5,73.5C 10.6553,70.3908 11.3219,67.3908 12.5,64.5C 14.8333,63.1667 17.1667,63.1667 19.5,64.5C 20.1398,59.9378 21.3064,59.6045 23,63.5C 24.5057,60.526 26.1724,60.1927 28,62.5C 31.0568,62.9454 34.0568,62.2787 37,60.5C 38.8887,61.9304 41.0554,62.5971 43.5,62.5C 46.7039,61.8231 49.7039,61.4898 52.5,61.5 Z"/></g>
<g><path style="opacity:1" fill="#a9937d" d="M 68.5,62.5 C 68.4021,64.5529 69.0687,66.2196 70.5,67.5C 70.3543,69.8057 70.021,72.139 69.5,74.5C 68.5,76.1667 67.1667,77.5 65.5,78.5C 63.9657,79.2029 62.299,79.0363 60.5,78C 61.3995,75.8083 62.3995,73.6416 63.5,71.5C 62.91,70.2011 61.91,69.3678 60.5,69C 61.5,68.6667 62.5,68.3333 63.5,68C 63.1667,67.6667 62.8333,67.3333 62.5,67C 63.7155,64.9045 64.5488,65.0712 65,67.5C 65.3333,66.1667 65.6667,64.8333 66,63.5C 66.6708,62.7476 67.5041,62.4142 68.5,62.5 Z"/></g>
<g><path style="opacity:1" fill="#cfb096" d="M 89.5,51.5 C 91.1667,51.5 92.8333,51.5 94.5,51.5C 90.3756,52.9022 86.0423,53.9022 81.5,54.5C 79.1638,56.0728 79.1638,57.4061 81.5,58.5C 80.3523,60.1487 79.019,61.6487 77.5,63C 78.448,63.4828 79.448,63.6495 80.5,63.5C 80.1489,65.8695 79.9822,68.2028 80,70.5C 82.3255,67.9892 85.1589,66.6559 88.5,66.5C 87.6935,67.7281 86.6935,68.7281 85.5,69.5C 84.5084,69.3284 83.8417,69.6618 83.5,70.5C 82.5041,70.4142 81.6708,70.7476 81,71.5C 80.6667,72.8333 80.3333,74.1667 80,75.5C 77.0042,71.3472 75.8375,66.8472 76.5,62C 75.9558,61.2828 75.2891,60.7828 74.5,60.5C 75.6392,57.9963 76.3059,55.3297 76.5,52.5C 75.1667,52.5 73.8333,52.5 72.5,52.5C 70.6782,51.6751 69.0115,51.3418 67.5,51.5C 68.8651,50.5444 70.3651,49.8777 72,49.5C 77.7035,52.4251 83.5368,53.0917 89.5,51.5 Z"/></g>
<g><path style="opacity:1" fill="#a78672" d="M 88.5,66.5 C 88.8333,66.5 89.1667,66.5 89.5,66.5C 92.7124,66.7124 94.7124,68.3791 95.5,71.5C 94.8333,71.5 94.1667,71.5 93.5,71.5C 91.4006,70.3882 89.0673,69.7215 86.5,69.5C 86.1667,69.5 85.8333,69.5 85.5,69.5C 86.6935,68.7281 87.6935,67.7281 88.5,66.5 Z"/></g>
<g><path style="opacity:1" fill="#a37c62" d="M 108.5,70.5 C 109.85,69.1765 109.683,68.1765 108,67.5C 105.815,67.6977 104.315,68.6977 103.5,70.5C 103.167,70.5 102.833,70.5 102.5,70.5C 101.194,69.5326 100.527,68.1993 100.5,66.5C 103.728,66.7006 106.895,66.3672 110,65.5C 113.121,65.7924 114.621,67.4591 114.5,70.5C 112.5,70.5 110.5,70.5 108.5,70.5 Z"/></g>
<g><path style="opacity:1" fill="#59372d" d="M 108.5,70.5 C 106.833,70.5 105.167,70.5 103.5,70.5C 104.315,68.6977 105.815,67.6977 108,67.5C 109.683,68.1765 109.85,69.1765 108.5,70.5 Z"/></g>
<g><path style="opacity:1" fill="#9b7158" d="M 73.5,75.5 C 72.2921,74.7659 70.9587,74.4326 69.5,74.5C 70.021,72.139 70.3543,69.8057 70.5,67.5C 71.7894,65.752 73.2894,65.4186 75,66.5C 74.0811,69.2836 73.5811,72.2836 73.5,75.5 Z"/></g>
<g><path style="opacity:1" fill="#3f2818" d="M 86.5,69.5 C 89.0673,69.7215 91.4006,70.3882 93.5,71.5C 93.5,72.1667 93.1667,72.5 92.5,72.5C 90.8008,72.6602 89.1341,72.4935 87.5,72C 86.7476,71.3292 86.4142,70.4959 86.5,69.5 Z"/></g>
<g><path style="opacity:1" fill="#725c42" d="M 63.5,84.5 C 63.6462,86.7799 63.3129,89.1132 62.5,91.5C 62.307,95.5662 62.6403,99.5662 63.5,103.5C 62.8826,103.389 62.3826,103.056 62,102.5C 61.8522,96.7512 61.1856,91.0845 60,85.5C 59,84.1667 58,84.1667 57,85.5C 54.841,83.0437 54.0077,83.7104 54.5,87.5C 53.5489,86.0813 53.2155,84.4147 53.5,82.5C 53.7394,80.5328 53.4061,78.6995 52.5,77C 48.4589,76.1735 44.4589,76.3401 40.5,77.5C 39.3595,78.4255 39.3595,79.2588 40.5,80C 39.6919,80.3076 39.0253,80.8076 38.5,81.5C 34.8002,82.2681 31.3002,82.2681 28,81.5C 26.6667,82.1667 25.3333,82.8333 24,83.5C 22.965,80.2136 21.465,79.8803 19.5,82.5C 16.6041,82.2934 13.6041,82.1267 10.5,82C 11.1667,81.6667 11.8333,81.3333 12.5,81C 12.0257,79.2714 11.0257,78.1047 9.5,77.5C 9.83333,76.1667 10.1667,74.8333 10.5,73.5C 13.1441,73.8399 15.4775,73.1733 17.5,71.5C 18.086,71.7093 18.586,72.0426 19,72.5C 20.7787,69.7236 21.7787,70.0569 22,73.5C 25.4197,69.6352 28.9197,69.6352 32.5,73.5C 37.1973,71.6767 41.3639,72.3434 45,75.5C 46.866,73.1914 49.0327,71.8581 51.5,71.5C 52.4508,74.0452 53.4508,74.0452 54.5,71.5C 53.4798,69.5675 53.3131,67.5675 54,65.5C 55.5487,69.7163 56.7154,74.0496 57.5,78.5C 59.6374,79.7381 60.9707,81.5714 61.5,84C 62.0944,84.4643 62.7611,84.631 63.5,84.5 Z"/></g>
<g><path style="opacity:1" fill="#b58f73" d="M 74.5,60.5 C 75.2891,60.7828 75.9558,61.2828 76.5,62C 75.8375,66.8472 77.0042,71.3472 80,75.5C 80.3333,74.1667 80.6667,72.8333 81,71.5C 81.6708,70.7476 82.5041,70.4142 83.5,70.5C 82.9717,71.7206 82.305,72.8873 81.5,74C 81.7284,74.3988 82.0618,74.5654 82.5,74.5C 80.8751,78.0552 78.7084,78.3885 76,75.5C 75.5065,77.1341 75.3398,78.8008 75.5,80.5C 74.8333,78.8333 74.1667,77.1667 73.5,75.5C 73.5811,72.2836 74.0811,69.2836 75,66.5C 73.2894,65.4186 71.7894,65.752 70.5,67.5C 69.0687,66.2196 68.4021,64.5529 68.5,62.5C 68.8333,62.5 69.1667,62.5 69.5,62.5C 70.9305,62.4208 72.2638,62.7542 73.5,63.5C 74.3857,62.675 74.719,61.675 74.5,60.5 Z"/></g>
<g><path style="opacity:1" fill="#946f4e" d="M 85.5,69.5 C 85.8333,69.5 86.1667,69.5 86.5,69.5C 86.4142,70.4959 86.7476,71.3292 87.5,72C 89.1341,72.4935 90.8008,72.6602 92.5,72.5C 92.0825,73.2216 91.4158,73.7216 90.5,74C 87.7037,74.0422 85.037,74.2088 82.5,74.5C 82.0618,74.5654 81.7284,74.3988 81.5,74C 82.305,72.8873 82.9717,71.7206 83.5,70.5C 83.8417,69.6618 84.5084,69.3284 85.5,69.5 Z"/></g>
<g><path style="opacity:1" fill="#e3cbb3" d="M 102.5,70.5 C 102.833,70.5 103.167,70.5 103.5,70.5C 105.866,71.7823 108.033,73.449 110,75.5C 110.583,73.9984 111.416,72.6651 112.5,71.5C 115.207,72.5785 117.874,73.5785 120.5,74.5C 120.5,75.8333 120.5,77.1667 120.5,78.5C 119.518,77.8592 118.518,77.1925 117.5,76.5C 116.591,78.3747 115.257,79.708 113.5,80.5C 113.167,80.5 112.833,80.5 112.5,80.5C 111.04,78.5372 109.373,76.7038 107.5,75C 103.174,75.0932 98.8405,75.0932 94.5,75C 94.1667,74.6667 93.8333,74.3333 93.5,74C 94.3805,73.2917 95.0472,72.4584 95.5,71.5C 97.7638,70.7814 100.097,70.448 102.5,70.5 Z"/></g>
<g><path style="opacity:1" fill="#ceb094" d="M 93.5,71.5 C 94.1667,71.5 94.8333,71.5 95.5,71.5C 95.0472,72.4584 94.3805,73.2917 93.5,74C 93.8333,74.3333 94.1667,74.6667 94.5,75C 98.8405,75.0932 103.174,75.0932 107.5,75C 109.373,76.7038 111.04,78.5372 112.5,80.5C 110.833,80.5 109.167,80.5 107.5,80.5C 106.833,80.1667 106.167,79.8333 105.5,79.5C 104.751,77.7538 103.417,76.7538 101.5,76.5C 98.2563,78.2991 94.9229,79.7991 91.5,81C 90.2567,82.1545 89.2567,83.4878 88.5,85C 85.5248,85.0435 82.5248,84.8769 79.5,84.5C 78.5,82.8333 77.1667,81.5 75.5,80.5C 75.3398,78.8008 75.5065,77.1341 76,75.5C 78.7084,78.3885 80.8751,78.0552 82.5,74.5C 85.037,74.2088 87.7037,74.0422 90.5,74C 91.4158,73.7216 92.0825,73.2216 92.5,72.5C 93.1667,72.5 93.5,72.1667 93.5,71.5 Z"/></g>
<g><path style="opacity:1" fill="#745f46" d="M 9.5,82.5 C 8.78138,84.7638 8.44805,87.0971 8.5,89.5C 8.5,91.1667 8.5,92.8333 8.5,94.5C 7.91427,98.8544 7.24761,103.188 6.5,107.5C 6.5,109.833 6.5,112.167 6.5,114.5C 5.84581,108 5.67914,101.333 6,94.5C 3.62522,95.129 1.45855,96.129 -0.5,97.5C -0.5,86.8333 -0.5,76.1667 -0.5,65.5C 0.495904,65.4142 1.32924,65.7476 2,66.5C 2.66667,65.8333 3.33333,65.1667 4,64.5C 5.48235,66.7811 7.14901,66.7811 9,64.5C 8.92725,70.6767 9.09392,76.6767 9.5,82.5 Z"/></g>
<g><path style="opacity:1" fill="#846e53" d="M 124.5,68.5 C 124.223,71.4475 124.556,74.2809 125.5,77C 131.308,76.3998 137.141,76.5665 143,77.5C 145.5,77.3333 148,77.1667 150.5,77C 153.596,74.6406 156.596,74.4739 159.5,76.5C 161.16,74.9616 163.66,73.6283 167,72.5C 170.975,73.5548 174.808,73.0548 178.5,71C 176.258,69.9926 176.592,69.1593 179.5,68.5C 179.5,73.8333 179.5,79.1667 179.5,84.5C 177.738,84.3573 176.071,84.6906 174.5,85.5C 172.65,84.7582 171.984,83.7582 172.5,82.5C 171.031,84.3751 169.198,84.3751 167,82.5C 165.168,83.8583 163.335,84.1916 161.5,83.5C 160.155,84.3467 159.155,85.5134 158.5,87C 155.57,87.6063 152.737,88.4396 150,89.5C 147.056,88.7434 144.056,88.0767 141,87.5C 136.098,88.6198 130.932,89.1198 125.5,89C 123.714,87.8036 122.381,86.3036 121.5,84.5C 120.859,83.5178 120.193,82.5178 119.5,81.5C 120.127,80.5832 120.461,79.5832 120.5,78.5C 122.23,75.3086 123.563,71.9753 124.5,68.5 Z"/></g>
<g><path style="opacity:1" fill="#b59578" d="M 120.5,78.5 C 120.461,79.5832 120.127,80.5832 119.5,81.5C 120.193,82.5178 120.859,83.5178 121.5,84.5C 121.721,87.2788 121.388,89.9455 120.5,92.5C 119.834,89.6417 119.167,86.6417 118.5,83.5C 117.893,83.6236 117.56,83.9569 117.5,84.5C 117.167,84.5 116.833,84.5 116.5,84.5C 114.799,83.7886 113.799,82.4553 113.5,80.5C 115.257,79.708 116.591,78.3747 117.5,76.5C 118.518,77.1925 119.518,77.8592 120.5,78.5 Z"/></g>
<g><path style="opacity:1" fill="#7b5b3e" d="M 69.5,74.5 C 70.9587,74.4326 72.2921,74.7659 73.5,75.5C 74.1667,77.1667 74.8333,78.8333 75.5,80.5C 75.3601,82.1238 76.0267,83.2904 77.5,84C 75.8082,85.3073 74.4749,86.8073 73.5,88.5C 70.7061,85.8055 69.7061,86.3055 70.5,90C 68.9716,91.3613 67.3049,92.528 65.5,93.5C 64.3044,93.1543 64.3044,92.6543 65.5,92C 64.552,91.5172 63.552,91.3505 62.5,91.5C 63.3129,89.1132 63.6462,86.7799 63.5,84.5C 64.1667,82.5 64.8333,80.5 65.5,78.5C 67.1667,77.5 68.5,76.1667 69.5,74.5 Z"/></g>
<g><path style="opacity:1" fill="#5b4638" d="M 105.5,79.5 C 106.167,79.8333 106.833,80.1667 107.5,80.5C 107.768,82.099 107.434,83.4324 106.5,84.5C 104.403,82.5176 101.736,81.5176 98.5,81.5C 100.018,78.4415 102.351,77.7748 105.5,79.5 Z"/></g>
<g><path style="opacity:1" fill="#7a654a" d="M 53.5,82.5 C 51.4086,82.6816 49.4086,82.3482 47.5,81.5C 45.556,82.1892 43.556,82.6892 41.5,83C 42.6341,84.016 42.3008,84.6827 40.5,85C 32.2845,84.8045 24.6179,86.6378 17.5,90.5C 15.287,87.9199 13.1203,87.9199 11,90.5C 10.3292,89.7476 9.4959,89.4142 8.5,89.5C 8.44805,87.0971 8.78138,84.7638 9.5,82.5C 9.5,80.8333 9.5,79.1667 9.5,77.5C 11.0257,78.1047 12.0257,79.2714 12.5,81C 11.8333,81.3333 11.1667,81.6667 10.5,82C 13.6041,82.1267 16.6041,82.2934 19.5,82.5C 21.465,79.8803 22.965,80.2136 24,83.5C 25.3333,82.8333 26.6667,82.1667 28,81.5C 31.3002,82.2681 34.8002,82.2681 38.5,81.5C 39.0253,80.8076 39.6919,80.3076 40.5,80C 39.3595,79.2588 39.3595,78.4255 40.5,77.5C 44.4589,76.3401 48.4589,76.1735 52.5,77C 53.4061,78.6995 53.7394,80.5328 53.5,82.5 Z"/></g>
<g><path style="opacity:1" fill="#664d32" d="M 63.5,103.5 C 63.5,105.5 63.5,107.5 63.5,109.5C 62.5041,109.586 61.6708,109.252 61,108.5C 60.8905,103.944 59.8905,99.6111 58,95.5C 56.871,93.8588 55.371,92.8588 53.5,92.5C 54.3007,90.9582 54.634,89.2915 54.5,87.5C 54.0077,83.7104 54.841,83.0437 57,85.5C 58,84.1667 59,84.1667 60,85.5C 61.1856,91.0845 61.8522,96.7512 62,102.5C 62.3826,103.056 62.8826,103.389 63.5,103.5 Z"/></g>
<g><path style="opacity:1" fill="#9f7957" d="M 105.5,79.5 C 102.351,77.7748 100.018,78.4415 98.5,81.5C 97.9569,81.56 97.6236,81.8933 97.5,82.5C 99.8405,86.8383 102.84,87.505 106.5,84.5C 107.434,83.4324 107.768,82.099 107.5,80.5C 109.167,80.5 110.833,80.5 112.5,80.5C 112.833,80.5 113.167,80.5 113.5,80.5C 113.799,82.4553 114.799,83.7886 116.5,84.5C 115.19,86.1477 113.857,87.8144 112.5,89.5C 107.118,90.9426 102.284,93.276 98,96.5C 95.1047,96.4684 92.6047,95.4684 90.5,93.5C 86.6425,95.1559 83.3091,94.4893 80.5,91.5C 78.802,92.6808 77.1353,92.6808 75.5,91.5C 77.4648,90.7078 79.4648,90.0412 81.5,89.5C 82.1924,88.9747 82.6924,88.3081 83,87.5C 83.7175,88.4506 84.5509,88.6172 85.5,88C 83.7427,86.2505 81.7427,85.0838 79.5,84.5C 82.5248,84.8769 85.5248,85.0435 88.5,85C 89.2567,83.4878 90.2567,82.1545 91.5,81C 94.9229,79.7991 98.2563,78.2991 101.5,76.5C 103.417,76.7538 104.751,77.7538 105.5,79.5 Z"/></g>
<g><path style="opacity:1" fill="#2e1f16" d="M 98.5,81.5 C 101.736,81.5176 104.403,82.5176 106.5,84.5C 102.84,87.505 99.8405,86.8383 97.5,82.5C 97.6236,81.8933 97.9569,81.56 98.5,81.5 Z"/></g>
<g><path style="opacity:1" fill="#836e52" d="M 53.5,82.5 C 53.2155,84.4147 53.5489,86.0813 54.5,87.5C 54.634,89.2915 54.3007,90.9582 53.5,92.5C 49.1614,93.4521 45.328,95.4521 42,98.5C 41.51,99.7932 41.3433,101.127 41.5,102.5C 40.5207,101.235 39.5207,99.9014 38.5,98.5C 36.5914,99.3482 34.5914,99.6816 32.5,99.5C 33.0262,96.1922 31.6928,94.0255 28.5,93C 29.8333,92.6667 31.1667,92.3333 32.5,92C 30.4213,91.1923 28.4213,91.359 26.5,92.5C 27.8938,93.6869 27.7271,94.3535 26,94.5C 23.405,92.8542 20.5716,92.1875 17.5,92.5C 17.2343,96.0794 15.901,96.4127 13.5,93.5C 11.8717,93.5786 10.2051,93.9119 8.5,94.5C 8.5,92.8333 8.5,91.1667 8.5,89.5C 9.4959,89.4142 10.3292,89.7476 11,90.5C 13.1203,87.9199 15.287,87.9199 17.5,90.5C 24.6179,86.6378 32.2845,84.8045 40.5,85C 42.3008,84.6827 42.6341,84.016 41.5,83C 43.556,82.6892 45.556,82.1892 47.5,81.5C 49.4086,82.3482 51.4086,82.6816 53.5,82.5 Z"/></g>
<g><path style="opacity:1" fill="#917860" d="M 179.5,84.5 C 179.5,86.8333 179.5,89.1667 179.5,91.5C 178.504,91.4142 177.671,91.7476 177,92.5C 175.635,88.8087 172.968,87.142 169,87.5C 165.403,87.6238 162.569,89.1238 160.5,92C 160.957,92.414 161.291,92.914 161.5,93.5C 159.368,94.5984 157.202,95.5984 155,96.5C 154,95.8333 153,95.1667 152,94.5C 149.187,97.1963 146.687,96.863 144.5,93.5C 141.485,94.7801 138.485,95.1134 135.5,94.5C 131.883,97.8531 127.883,99.0197 123.5,98C 121.323,96.8139 120.323,94.9806 120.5,92.5C 121.388,89.9455 121.721,87.2788 121.5,84.5C 122.381,86.3036 123.714,87.8036 125.5,89C 130.932,89.1198 136.098,88.6198 141,87.5C 144.056,88.0767 147.056,88.7434 150,89.5C 152.737,88.4396 155.57,87.6063 158.5,87C 159.155,85.5134 160.155,84.3467 161.5,83.5C 163.335,84.1916 165.168,83.8583 167,82.5C 169.198,84.3751 171.031,84.3751 172.5,82.5C 171.984,83.7582 172.65,84.7582 174.5,85.5C 176.071,84.6906 177.738,84.3573 179.5,84.5 Z"/></g>
<g><path style="opacity:1" fill="#987e60" d="M 117.5,84.5 C 117.56,83.9569 117.893,83.6236 118.5,83.5C 119.167,86.6417 119.834,89.6417 120.5,92.5C 120.323,94.9806 121.323,96.8139 123.5,98C 127.883,99.0197 131.883,97.8531 135.5,94.5C 138.485,95.1134 141.485,94.7801 144.5,93.5C 146.687,96.863 149.187,97.1963 152,94.5C 153,95.1667 154,95.8333 155,96.5C 157.202,95.5984 159.368,94.5984 161.5,93.5C 161.291,92.914 160.957,92.414 160.5,92C 162.569,89.1238 165.403,87.6238 169,87.5C 172.968,87.142 175.635,88.8087 177,92.5C 177.671,91.7476 178.504,91.4142 179.5,91.5C 179.5,94.1667 179.5,96.8333 179.5,99.5C 177.767,98.9924 177.434,98.159 178.5,97C 177.234,96.6905 176.067,96.1905 175,95.5C 173.795,96.0712 172.628,96.7379 171.5,97.5C 172.025,98.1924 172.692,98.6924 173.5,99C 173,99.1667 172.5,99.3333 172,99.5C 165.293,100.094 158.459,100.094 151.5,99.5C 150.692,99.8076 150.025,100.308 149.5,101C 145.579,101.203 141.745,101.703 138,102.5C 135.838,102.06 133.671,101.727 131.5,101.5C 129.028,103.348 126.861,103.348 125,101.5C 124.667,102.167 124.333,102.833 124,103.5C 123.259,102.359 122.425,102.359 121.5,103.5C 120.833,101.5 120.167,99.5 119.5,97.5C 118.893,97.6236 118.56,97.9569 118.5,98.5C 118.146,102.022 116.813,105.022 114.5,107.5C 114.331,104.192 114.997,100.858 116.5,97.5C 114.8,97.3739 113.3,96.7073 112,95.5C 111.235,95.5699 110.735,95.9033 110.5,96.5C 110.167,96.5 109.833,96.5 109.5,96.5C 111.969,93.5808 114.802,90.9141 118,88.5C 118.765,86.9343 118.598,85.6009 117.5,84.5 Z"/></g>
<g><path style="opacity:1" fill="#34200e" d="M 53.5,92.5 C 55.371,92.8588 56.871,93.8588 58,95.5C 59.8905,99.6111 60.8905,103.944 61,108.5C 61.6708,109.252 62.5041,109.586 63.5,109.5C 63.5,110.167 63.8333,110.5 64.5,110.5C 64.5,112.167 64.5,113.833 64.5,115.5C 64.2942,117.549 63.4609,117.883 62,116.5C 60.9148,117.293 59.7481,117.96 58.5,118.5C 56.9246,117.544 55.258,116.877 53.5,116.5C 49.7714,113.768 47.1047,110.101 45.5,105.5C 44.1482,104.476 42.8149,103.476 41.5,102.5C 41.3433,101.127 41.51,99.7932 42,98.5C 45.328,95.4521 49.1614,93.4521 53.5,92.5 Z"/></g>
<g><path style="opacity:1" fill="#917a60" d="M 41.5,102.5 C 42.8149,103.476 44.1482,104.476 45.5,105.5C 47.1047,110.101 49.7714,113.768 53.5,116.5C 53.3404,118.153 52.6737,119.486 51.5,120.5C 51.7612,116.956 50.0945,115.122 46.5,115C 48.3008,114.683 48.6341,114.016 47.5,113C 44.5706,112.223 41.7372,112.39 39,113.5C 39.1667,111 39.3333,108.5 39.5,106C 39,105.833 38.5,105.667 38,105.5C 35.2513,106.264 32.5846,106.597 30,106.5C 27.8949,102.951 25.2282,102.618 22,105.5C 21.6192,104.518 20.7859,103.852 19.5,103.5C 17.4311,103.824 17.0977,104.658 18.5,106C 16.1024,106.025 13.7691,106.859 11.5,108.5C 10.4688,109.7 9.63547,111.034 9,112.5C 8.95042,110.256 8.11709,108.589 6.5,107.5C 7.24761,103.188 7.91427,98.8544 8.5,94.5C 10.2051,93.9119 11.8717,93.5786 13.5,93.5C 15.901,96.4127 17.2343,96.0794 17.5,92.5C 20.5716,92.1875 23.405,92.8542 26,94.5C 27.7271,94.3535 27.8938,93.6869 26.5,92.5C 28.4213,91.359 30.4213,91.1923 32.5,92C 31.1667,92.3333 29.8333,92.6667 28.5,93C 31.6928,94.0255 33.0262,96.1922 32.5,99.5C 34.5914,99.6816 36.5914,99.3482 38.5,98.5C 39.5207,99.9014 40.5207,101.235 41.5,102.5 Z"/></g>
<g><path style="opacity:1" fill="#9e8768" d="M 179.5,99.5 C 179.5,100.5 179.5,101.5 179.5,102.5C 177.897,101.323 176.564,101.489 175.5,103C 175.833,103.333 176.167,103.667 176.5,104C 174.414,105.827 172.414,105.827 170.5,104C 172.663,103.755 174.33,102.755 175.5,101C 173.126,101.402 170.793,101.236 168.5,100.5C 167.713,101.242 167.047,102.075 166.5,103C 163.512,103.217 160.845,104.217 158.5,106C 154.579,106.203 150.745,106.703 147,107.5C 143.062,107.645 139.395,107.312 136,106.5C 134.207,108.806 132.04,109.139 129.5,107.5C 128.522,107.977 127.689,108.643 127,109.5C 124.123,108.17 121.289,108.336 118.5,110C 120.5,110.333 122.5,110.667 124.5,111C 121.832,111.567 119.166,112.067 116.5,112.5C 117.694,108.914 118.694,105.247 119.5,101.5C 119.48,100.274 119.147,99.2739 118.5,98.5C 118.56,97.9569 118.893,97.6236 119.5,97.5C 120.167,99.5 120.833,101.5 121.5,103.5C 122.425,102.359 123.259,102.359 124,103.5C 124.333,102.833 124.667,102.167 125,101.5C 126.861,103.348 129.028,103.348 131.5,101.5C 133.671,101.727 135.838,102.06 138,102.5C 141.745,101.703 145.579,101.203 149.5,101C 150.025,100.308 150.692,99.8076 151.5,99.5C 158.459,100.094 165.293,100.094 172,99.5C 172.5,99.3333 173,99.1667 173.5,99C 172.692,98.6924 172.025,98.1924 171.5,97.5C 172.628,96.7379 173.795,96.0712 175,95.5C 176.067,96.1905 177.234,96.6905 178.5,97C 177.434,98.159 177.767,98.9924 179.5,99.5 Z"/></g>
<g><path style="opacity:1" fill="#927b5f" d="M 6.5,114.5 C 6.32588,116.861 5.99255,119.194 5.5,121.5C 5.5,122.167 5.5,122.833 5.5,123.5C 4.97913,127.481 4.6458,131.481 4.5,135.5C 3.67081,140.453 3.33748,145.453 3.5,150.5C 2.83588,148.022 2.50255,145.355 2.5,142.5C 3.53482,132.521 4.20149,122.521 4.5,112.5C 2.83333,112.5 1.16667,112.5 -0.5,112.5C -0.5,107.5 -0.5,102.5 -0.5,97.5C 1.45855,96.129 3.62522,95.129 6,94.5C 5.67914,101.333 5.84581,108 6.5,114.5 Z"/></g>
<g><path style="opacity:1" fill="#876448" d="M 109.5,96.5 C 109.833,96.5 110.167,96.5 110.5,96.5C 110.281,97.675 110.614,98.675 111.5,99.5C 112.609,98.4104 113.609,98.4104 114.5,99.5C 112.33,101.086 109.996,102.42 107.5,103.5C 107.511,102.559 107.011,101.892 106,101.5C 103.755,102.137 101.588,102.97 99.5,104C 100.416,104.278 101.082,104.778 101.5,105.5C 98.8015,105.466 96.3015,106.133 94,107.5C 92.6439,106.62 91.1439,106.286 89.5,106.5C 86.5,106.5 83.5,106.5 80.5,106.5C 80.1667,106.5 79.8333,106.5 79.5,106.5C 79.5,105.5 79.5,104.5 79.5,103.5C 77.6916,103.509 76.0249,103.009 74.5,102C 77.0699,100.883 79.7366,100.05 82.5,99.5C 88.9306,102.803 95.5973,103.303 102.5,101C 104.324,98.4953 106.657,96.9953 109.5,96.5 Z"/></g>
<g><path style="opacity:1" fill="#a48c6d" d="M 118.5,98.5 C 119.147,99.2739 119.48,100.274 119.5,101.5C 118.694,105.247 117.694,108.914 116.5,112.5C 119.166,112.067 121.832,111.567 124.5,111C 122.5,110.667 120.5,110.333 118.5,110C 121.289,108.336 124.123,108.17 127,109.5C 127.689,108.643 128.522,107.977 129.5,107.5C 132.04,109.139 134.207,108.806 136,106.5C 139.395,107.312 143.062,107.645 147,107.5C 150.745,106.703 154.579,106.203 158.5,106C 160.845,104.217 163.512,103.217 166.5,103C 167.047,102.075 167.713,101.242 168.5,100.5C 170.793,101.236 173.126,101.402 175.5,101C 174.33,102.755 172.663,103.755 170.5,104C 172.414,105.827 174.414,105.827 176.5,104C 176.167,103.667 175.833,103.333 175.5,103C 176.564,101.489 177.897,101.323 179.5,102.5C 179.5,105.5 179.5,108.5 179.5,111.5C 175.75,110.266 172.25,110.266 169,111.5C 168.454,112.289 167.787,113.289 167,114.5C 166.692,113.692 166.192,113.025 165.5,112.5C 163.618,113.093 161.785,113.76 160,114.5C 159.667,113.833 159.333,113.167 159,112.5C 154.277,114.146 149.443,115.48 144.5,116.5C 142.729,115.965 142.396,115.131 143.5,114C 141.567,113.217 140.067,113.717 139,115.5C 137.612,114.446 136.112,114.28 134.5,115C 138.386,115.579 138.386,116.412 134.5,117.5C 130.647,114.695 127.147,115.028 124,118.5C 123.235,118.43 122.735,118.097 122.5,117.5C 122.189,116.522 121.522,115.855 120.5,115.5C 119.416,116.665 118.583,117.998 118,119.5C 116.772,116.767 114.939,116.1 112.5,117.5C 112.322,113.878 112.989,110.544 114.5,107.5C 116.813,105.022 118.146,102.022 118.5,98.5 Z"/></g>
<g><path style="opacity:1" fill="#94704e" d="M 75.5,80.5 C 77.1667,81.5 78.5,82.8333 79.5,84.5C 81.7427,85.0838 83.7427,86.2505 85.5,88C 84.5509,88.6172 83.7175,88.4506 83,87.5C 82.6924,88.3081 82.1924,88.9747 81.5,89.5C 79.4648,90.0412 77.4648,90.7078 75.5,91.5C 77.1353,92.6808 78.802,92.6808 80.5,91.5C 83.3091,94.4893 86.6425,95.1559 90.5,93.5C 92.6047,95.4684 95.1047,96.4684 98,96.5C 102.284,93.276 107.118,90.9426 112.5,89.5C 113.857,87.8144 115.19,86.1477 116.5,84.5C 116.833,84.5 117.167,84.5 117.5,84.5C 118.598,85.6009 118.765,86.9343 118,88.5C 114.802,90.9141 111.969,93.5808 109.5,96.5C 106.657,96.9953 104.324,98.4953 102.5,101C 95.5973,103.303 88.9306,102.803 82.5,99.5C 79.7366,100.05 77.0699,100.883 74.5,102C 76.0249,103.009 77.6916,103.509 79.5,103.5C 79.5,104.5 79.5,105.5 79.5,106.5C 78.2921,107.234 76.9587,107.567 75.5,107.5C 75.5,108.833 75.5,110.167 75.5,111.5C 75.1077,113.179 74.6077,114.846 74,116.5C 72.513,115.747 72.3463,114.914 73.5,114C 68.4373,111.456 66.4373,107.456 67.5,102C 66.9777,101.05 66.311,100.216 65.5,99.5C 67.4544,95.234 70.1211,91.5674 73.5,88.5C 74.4749,86.8073 75.8082,85.3073 77.5,84C 76.0267,83.2904 75.3601,82.1238 75.5,80.5 Z"/></g>
<g><path style="opacity:1" fill="#9d8667" d="M 51.5,120.5 C 50.596,121.209 50.2627,122.209 50.5,123.5C 48.4362,123.238 47.1029,122.071 46.5,120C 41.4887,118.326 36.4887,118.493 31.5,120.5C 29.1585,120.338 27.3252,119.338 26,117.5C 23.169,117.958 20.8357,119.292 19,121.5C 16.6023,121.042 14.9356,119.708 14,117.5C 13.5,118.667 12.6667,119.5 11.5,120C 12.5,120.333 13.5,120.667 14.5,121C 11.6529,121.944 9.15293,121.444 7,119.5C 6.72158,120.416 6.22158,121.082 5.5,121.5C 5.99255,119.194 6.32588,116.861 6.5,114.5C 6.5,112.167 6.5,109.833 6.5,107.5C 8.11709,108.589 8.95042,110.256 9,112.5C 9.63547,111.034 10.4688,109.7 11.5,108.5C 13.7691,106.859 16.1024,106.025 18.5,106C 17.0977,104.658 17.4311,103.824 19.5,103.5C 20.7859,103.852 21.6192,104.518 22,105.5C 25.2282,102.618 27.8949,102.951 30,106.5C 32.5846,106.597 35.2513,106.264 38,105.5C 38.5,105.667 39,105.833 39.5,106C 39.3333,108.5 39.1667,111 39,113.5C 41.7372,112.39 44.5706,112.223 47.5,113C 48.6341,114.016 48.3008,114.683 46.5,115C 50.0945,115.122 51.7612,116.956 51.5,120.5 Z"/></g>
<g><path style="opacity:1" fill="#1d0a03" d="M 80.5,106.5 C 83.5,106.5 86.5,106.5 89.5,106.5C 90.9526,107.825 90.6192,108.658 88.5,109C 85.854,109.497 83.1873,109.664 80.5,109.5C 80.5,108.5 80.5,107.5 80.5,106.5 Z"/></g>
<g><path style="opacity:1" fill="#906b46" d="M 114.5,107.5 C 112.989,110.544 112.322,113.878 112.5,117.5C 111.587,120.078 110.254,122.411 108.5,124.5C 108.167,124.5 107.833,124.5 107.5,124.5C 108.237,121.031 107.903,117.531 106.5,114C 107.453,112.045 108.787,110.378 110.5,109C 108.863,107.049 107.363,107.216 106,109.5C 105.55,106.894 104.05,105.561 101.5,105.5C 101.082,104.778 100.416,104.278 99.5,104C 101.588,102.97 103.755,102.137 106,101.5C 107.011,101.892 107.511,102.559 107.5,103.5C 109.996,102.42 112.33,101.086 114.5,99.5C 113.609,98.4104 112.609,98.4104 111.5,99.5C 110.614,98.675 110.281,97.675 110.5,96.5C 110.735,95.9033 111.235,95.5699 112,95.5C 113.3,96.7073 114.8,97.3739 116.5,97.5C 114.997,100.858 114.331,104.192 114.5,107.5 Z"/></g>
<g><path style="opacity:1" fill="#aa9272" d="M 179.5,111.5 C 179.5,114.167 179.5,116.833 179.5,119.5C 173.631,120.699 167.798,120.699 162,119.5C 160.582,122.001 159.582,121.668 159,118.5C 158.333,119.833 157.667,119.833 157,118.5C 156.431,122.361 155.598,122.361 154.5,118.5C 151.981,120.505 149.147,121.838 146,122.5C 144.684,119.972 143.517,119.972 142.5,122.5C 141.522,122.023 140.689,121.357 140,120.5C 138.197,124.512 137.197,124.178 137,119.5C 134.566,121.023 131.899,122.023 129,122.5C 126.048,119.821 123.048,119.488 120,121.5C 119.09,119.055 119.924,117.722 122.5,117.5C 122.735,118.097 123.235,118.43 124,118.5C 127.147,115.028 130.647,114.695 134.5,117.5C 138.386,116.412 138.386,115.579 134.5,115C 136.112,114.28 137.612,114.446 139,115.5C 140.067,113.717 141.567,113.217 143.5,114C 142.396,115.131 142.729,115.965 144.5,116.5C 149.443,115.48 154.277,114.146 159,112.5C 159.333,113.167 159.667,113.833 160,114.5C 161.785,113.76 163.618,113.093 165.5,112.5C 166.192,113.025 166.692,113.692 167,114.5C 167.787,113.289 168.454,112.289 169,111.5C 172.25,110.266 175.75,110.266 179.5,111.5 Z"/></g>
<g><path style="opacity:1" fill="#3a220d" d="M 101.5,105.5 C 101.686,111.882 102.353,118.215 103.5,124.5C 104.183,124.863 104.85,125.196 105.5,125.5C 105.5,126.5 105.5,127.5 105.5,128.5C 101.284,128.799 98.1173,127.132 96,123.5C 94.6841,126.028 93.5174,126.028 92.5,123.5C 90.1416,125.678 87.4749,127.345 84.5,128.5C 84.0296,127.307 83.0296,126.64 81.5,126.5C 79.6814,126.342 78.3481,127.009 77.5,128.5C 78.325,129.386 79.325,129.719 80.5,129.5C 77.5,130.833 74.5,130.833 71.5,129.5C 71.5774,128.25 72.244,127.417 73.5,127C 72.7476,126.329 72.4142,125.496 72.5,124.5C 73.7348,124.721 74.7348,125.388 75.5,126.5C 77.6381,125.595 79.8047,124.595 82,123.5C 80.8942,119.044 80.3942,114.378 80.5,109.5C 83.1873,109.664 85.854,109.497 88.5,109C 90.6192,108.658 90.9526,107.825 89.5,106.5C 91.1439,106.286 92.6439,106.62 94,107.5C 96.3015,106.133 98.8015,105.466 101.5,105.5 Z"/></g>
<g><path style="opacity:1" fill="#462c15" d="M 64.5,115.5 C 65.2239,118.083 66.0572,120.749 67,123.5C 68.6995,124.406 70.5328,124.739 72.5,124.5C 72.4142,125.496 72.7476,126.329 73.5,127C 72.244,127.417 71.5774,128.25 71.5,129.5C 68.5701,128.701 65.5701,128.368 62.5,128.5C 59.9896,127.217 57.3229,126.217 54.5,125.5C 53.713,123.896 52.3797,123.229 50.5,123.5C 50.2627,122.209 50.596,121.209 51.5,120.5C 52.6737,119.486 53.3404,118.153 53.5,116.5C 55.258,116.877 56.9246,117.544 58.5,118.5C 59.7481,117.96 60.9148,117.293 62,116.5C 63.4609,117.883 64.2942,117.549 64.5,115.5 Z"/></g>
<g><path style="opacity:1" fill="#886845" d="M 73.5,88.5 C 70.1211,91.5674 67.4544,95.234 65.5,99.5C 66.311,100.216 66.9777,101.05 67.5,102C 66.4373,107.456 68.4373,111.456 73.5,114C 72.3463,114.914 72.513,115.747 74,116.5C 74.6077,114.846 75.1077,113.179 75.5,111.5C 76.5511,114.344 76.5511,117.344 75.5,120.5C 73.1732,120.665 71.0065,121.331 69,122.5C 67.4178,120.376 67.2512,118.21 68.5,116C 67.0229,114.188 65.6896,112.355 64.5,110.5C 63.8333,110.5 63.5,110.167 63.5,109.5C 63.5,107.5 63.5,105.5 63.5,103.5C 62.6403,99.5662 62.307,95.5662 62.5,91.5C 63.552,91.3505 64.552,91.5172 65.5,92C 64.3044,92.6543 64.3044,93.1543 65.5,93.5C 67.3049,92.528 68.9716,91.3613 70.5,90C 69.7061,86.3055 70.7061,85.8055 73.5,88.5 Z"/></g>
<g><path style="opacity:1" fill="#a68d6e" d="M 50.5,123.5 C 52.3797,123.229 53.713,123.896 54.5,125.5C 48.1759,125.482 41.8426,125.482 35.5,125.5C 35.1667,125.333 34.8333,125.167 34.5,125C 35.3279,124.085 36.3279,123.419 37.5,123C 36.5856,120.403 34.919,120.07 32.5,122C 31.3595,122.741 31.3595,123.575 32.5,124.5C 31.7579,125.287 30.9246,125.953 30,126.5C 26.7868,127.59 23.6202,127.59 20.5,126.5C 18.2906,127.106 16.124,127.773 14,128.5C 11.2317,127.344 8.39838,125.677 5.5,123.5C 5.5,122.833 5.5,122.167 5.5,121.5C 6.22158,121.082 6.72158,120.416 7,119.5C 9.15293,121.444 11.6529,121.944 14.5,121C 13.5,120.667 12.5,120.333 11.5,120C 12.6667,119.5 13.5,118.667 14,117.5C 14.9356,119.708 16.6023,121.042 19,121.5C 20.8357,119.292 23.169,117.958 26,117.5C 27.3252,119.338 29.1585,120.338 31.5,120.5C 36.4887,118.493 41.4887,118.326 46.5,120C 47.1029,122.071 48.4362,123.238 50.5,123.5 Z"/></g>
<g><path style="opacity:1" fill="#b09679" d="M 122.5,117.5 C 119.924,117.722 119.09,119.055 120,121.5C 123.048,119.488 126.048,119.821 129,122.5C 131.899,122.023 134.566,121.023 137,119.5C 137.197,124.178 138.197,124.512 140,120.5C 140.689,121.357 141.522,122.023 142.5,122.5C 143.517,119.972 144.684,119.972 146,122.5C 149.147,121.838 151.981,120.505 154.5,118.5C 155.598,122.361 156.431,122.361 157,118.5C 157.667,119.833 158.333,119.833 159,118.5C 159.582,121.668 160.582,122.001 162,119.5C 167.798,120.699 173.631,120.699 179.5,119.5C 179.5,121.833 179.5,124.167 179.5,126.5C 175.637,126.462 171.804,126.795 168,127.5C 165.966,127.646 164.299,126.98 163,125.5C 160.067,126.605 157.067,127.605 154,128.5C 151.293,127.461 148.626,127.461 146,128.5C 143.201,128.18 140.701,127.18 138.5,125.5C 137.749,126.376 137.249,127.376 137,128.5C 133.589,127.707 130.089,127.207 126.5,127C 129.937,126.351 130.104,125.851 127,125.5C 124.648,126.406 122.481,126.74 120.5,126.5C 119.185,125.524 117.852,124.524 116.5,123.5C 115.304,123.846 115.304,124.346 116.5,125C 115.551,125.617 114.718,125.451 114,124.5C 112.908,126.931 111.741,126.931 110.5,124.5C 109.833,124.5 109.167,124.5 108.5,124.5C 110.254,122.411 111.587,120.078 112.5,117.5C 114.939,116.1 116.772,116.767 118,119.5C 118.583,117.998 119.416,116.665 120.5,115.5C 121.522,115.855 122.189,116.522 122.5,117.5 Z"/></g>
<g><path style="opacity:1" fill="#ac9372" d="M 54.5,125.5 C 57.3229,126.217 59.9896,127.217 62.5,128.5C 64.5313,128.972 66.1979,129.972 67.5,131.5C 67.5,131.833 67.5,132.167 67.5,132.5C 65.9397,132.481 64.4397,132.148 63,131.5C 62.0546,131.905 61.3879,132.572 61,133.5C 55.4084,132.386 50.2418,131.72 45.5,131.5C 42.9639,131.844 40.7972,132.844 39,134.5C 35.497,131.997 31.997,131.997 28.5,134.5C 24.7296,133.73 20.7296,133.397 16.5,133.5C 13.3599,133.946 10.6932,135.279 8.5,137.5C 7.14011,136.82 5.80678,136.153 4.5,135.5C 4.6458,131.481 4.97913,127.481 5.5,123.5C 8.39838,125.677 11.2317,127.344 14,128.5C 16.124,127.773 18.2906,127.106 20.5,126.5C 23.6202,127.59 26.7868,127.59 30,126.5C 30.9246,125.953 31.7579,125.287 32.5,124.5C 31.3595,123.575 31.3595,122.741 32.5,122C 34.919,120.07 36.5856,120.403 37.5,123C 36.3279,123.419 35.3279,124.085 34.5,125C 34.8333,125.167 35.1667,125.333 35.5,125.5C 41.8426,125.482 48.1759,125.482 54.5,125.5 Z"/></g>
<g><path style="opacity:1" fill="#765233" d="M 101.5,105.5 C 104.05,105.561 105.55,106.894 106,109.5C 107.363,107.216 108.863,107.049 110.5,109C 108.787,110.378 107.453,112.045 106.5,114C 107.903,117.531 108.237,121.031 107.5,124.5C 107.158,125.338 106.492,125.672 105.5,125.5C 104.85,125.196 104.183,124.863 103.5,124.5C 102.353,118.215 101.686,111.882 101.5,105.5 Z"/></g>
<g><path style="opacity:1" fill="#765734" d="M 79.5,106.5 C 79.6659,111.511 79.4993,116.511 79,121.5C 77.0088,122.992 74.8422,123.992 72.5,124.5C 70.5328,124.739 68.6995,124.406 67,123.5C 66.0572,120.749 65.2239,118.083 64.5,115.5C 64.5,113.833 64.5,112.167 64.5,110.5C 65.6896,112.355 67.0229,114.188 68.5,116C 67.2512,118.21 67.4178,120.376 69,122.5C 71.0065,121.331 73.1732,120.665 75.5,120.5C 76.5511,117.344 76.5511,114.344 75.5,111.5C 75.5,110.167 75.5,108.833 75.5,107.5C 76.9587,107.567 78.2921,107.234 79.5,106.5 Z"/></g>
<g><path style="opacity:1" fill="#5a381a" d="M 79.5,106.5 C 79.8333,106.5 80.1667,106.5 80.5,106.5C 80.5,107.5 80.5,108.5 80.5,109.5C 80.3942,114.378 80.8942,119.044 82,123.5C 79.8047,124.595 77.6381,125.595 75.5,126.5C 74.7348,125.388 73.7348,124.721 72.5,124.5C 74.8422,123.992 77.0088,122.992 79,121.5C 79.4993,116.511 79.6659,111.511 79.5,106.5 Z"/></g>
<g><path style="opacity:1" fill="#57391c" d="M 105.5,125.5 C 106.492,125.672 107.158,125.338 107.5,124.5C 107.833,124.5 108.167,124.5 108.5,124.5C 109.167,124.5 109.833,124.5 110.5,124.5C 110.5,126.167 110.5,127.833 110.5,129.5C 101.01,131.76 91.3434,133.094 81.5,133.5C 76.6842,133.643 72.0175,132.976 67.5,131.5C 66.1979,129.972 64.5313,128.972 62.5,128.5C 65.5701,128.368 68.5701,128.701 71.5,129.5C 74.5,130.833 77.5,130.833 80.5,129.5C 81.8333,129.167 83.1667,128.833 84.5,128.5C 87.4749,127.345 90.1416,125.678 92.5,123.5C 93.5174,126.028 94.6841,126.028 96,123.5C 98.1173,127.132 101.284,128.799 105.5,128.5C 105.5,127.5 105.5,126.5 105.5,125.5 Z"/></g>
<g><path style="opacity:1" fill="#261206" d="M 84.5,128.5 C 83.1667,128.833 81.8333,129.167 80.5,129.5C 79.325,129.719 78.325,129.386 77.5,128.5C 78.3481,127.009 79.6814,126.342 81.5,126.5C 83.0296,126.64 84.0296,127.307 84.5,128.5 Z"/></g>
<g><path style="opacity:1" fill="#71523f" d="M 120.5,126.5 C 119.173,128.182 117.506,129.515 115.5,130.5C 115.167,130.5 114.833,130.5 114.5,130.5C 113.167,130.5 111.833,130.5 110.5,130.5C 110.5,130.167 110.5,129.833 110.5,129.5C 110.5,127.833 110.5,126.167 110.5,124.5C 111.741,126.931 112.908,126.931 114,124.5C 114.718,125.451 115.551,125.617 116.5,125C 115.304,124.346 115.304,123.846 116.5,123.5C 117.852,124.524 119.185,125.524 120.5,126.5 Z"/></g>
<g><path style="opacity:1" fill="#b99d7e" d="M 179.5,126.5 C 179.5,127.5 179.5,128.5 179.5,129.5C 177.453,129.511 175.453,129.844 173.5,130.5C 172.353,130.182 171.519,129.516 171,128.5C 169.796,129.859 168.296,130.859 166.5,131.5C 166.709,132.086 167.043,132.586 167.5,133C 156.356,133.652 145.022,134.652 133.5,136C 134.654,136.914 134.487,137.747 133,138.5C 132.667,137.833 132.333,137.167 132,136.5C 128.71,136.426 125.543,136.76 122.5,137.5C 120.22,136.245 119.053,134.245 119,131.5C 118.333,132.833 117.667,132.833 117,131.5C 116.536,132.094 116.369,132.761 116.5,133.5C 115.596,132.791 115.263,131.791 115.5,130.5C 117.506,129.515 119.173,128.182 120.5,126.5C 122.481,126.74 124.648,126.406 127,125.5C 130.104,125.851 129.937,126.351 126.5,127C 130.089,127.207 133.589,127.707 137,128.5C 137.249,127.376 137.749,126.376 138.5,125.5C 140.701,127.18 143.201,128.18 146,128.5C 148.626,127.461 151.293,127.461 154,128.5C 157.067,127.605 160.067,126.605 163,125.5C 164.299,126.98 165.966,127.646 168,127.5C 171.804,126.795 175.637,126.462 179.5,126.5 Z"/></g>
<g><path style="opacity:1" fill="#a78e6d" d="M -0.5,112.5 C 1.16667,112.5 2.83333,112.5 4.5,112.5C 4.20149,122.521 3.53482,132.521 2.5,142.5C 2.50255,145.355 2.83588,148.022 3.5,150.5C 2.69929,152.042 2.36596,153.708 2.5,155.5C 1.93499,160.149 1.43499,164.816 1,169.5C 0.445102,163.82 0.611769,158.154 1.5,152.5C 1.44392,150.36 0.777251,148.694 -0.5,147.5C -0.5,135.833 -0.5,124.167 -0.5,112.5 Z"/></g>
<g><path style="opacity:1" fill="#b79979" d="M 110.5,130.5 C 111.833,130.5 113.167,130.5 114.5,130.5C 114.5,131.5 114.5,132.5 114.5,133.5C 112.856,133.714 111.356,133.38 110,132.5C 107.325,137.419 103.491,138.586 98.5,136C 93.8333,135.333 89.1667,135.333 84.5,136C 84.8333,136.333 85.1667,136.667 85.5,137C 82.6255,138.899 79.4589,139.733 76,139.5C 73.4605,139.038 71.1271,139.038 69,139.5C 68.5172,138.552 68.3505,137.552 68.5,136.5C 66.6693,137.052 65.0026,137.052 63.5,136.5C 63.1667,136.833 62.8333,137.167 62.5,137.5C 63.1925,138.518 63.8592,139.518 64.5,140.5C 58.0343,141.322 51.8676,141.322 46,140.5C 45.2506,141.635 45.4173,142.635 46.5,143.5C 49.438,142.425 52.438,142.259 55.5,143C 51.8296,143.548 48.1629,144.048 44.5,144.5C 40.5,144.167 36.5,143.833 32.5,143.5C 32.5,144.833 32.5,146.167 32.5,147.5C 26.6886,147.791 21.0219,147.124 15.5,145.5C 13.0769,145.55 11.2436,146.55 10,148.5C 9.66667,148.167 9.33333,147.833 9,147.5C 8.07182,150.035 6.23848,151.035 3.5,150.5C 3.33748,145.453 3.67081,140.453 4.5,135.5C 5.80678,136.153 7.14011,136.82 8.5,137.5C 10.6932,135.279 13.3599,133.946 16.5,133.5C 20.7296,133.397 24.7296,133.73 28.5,134.5C 31.997,131.997 35.497,131.997 39,134.5C 40.7972,132.844 42.9639,131.844 45.5,131.5C 50.2418,131.72 55.4084,132.386 61,133.5C 61.3879,132.572 62.0546,131.905 63,131.5C 64.4397,132.148 65.9397,132.481 67.5,132.5C 70.2666,133.631 73.0999,134.631 76,135.5C 82.8094,134.76 89.6427,134.26 96.5,134C 101.399,133.442 106.065,132.275 110.5,130.5 Z"/></g>
<g><path style="opacity:1" fill="#725030" d="M 110.5,129.5 C 110.5,129.833 110.5,130.167 110.5,130.5C 106.065,132.275 101.399,133.442 96.5,134C 89.6427,134.26 82.8094,134.76 76,135.5C 73.0999,134.631 70.2666,133.631 67.5,132.5C 67.5,132.167 67.5,131.833 67.5,131.5C 72.0175,132.976 76.6842,133.643 81.5,133.5C 91.3434,133.094 101.01,131.76 110.5,129.5 Z"/></g>
<g><path style="opacity:1" fill="#9d7b59" d="M 114.5,130.5 C 114.833,130.5 115.167,130.5 115.5,130.5C 115.263,131.791 115.596,132.791 116.5,133.5C 116.942,137.154 117.276,140.821 117.5,144.5C 116.368,140.981 115.368,137.314 114.5,133.5C 114.5,132.5 114.5,131.5 114.5,130.5 Z"/></g>
<g><path style="opacity:1" fill="#bea280" d="M 179.5,129.5 C 179.5,131.833 179.5,134.167 179.5,136.5C 166.84,137.358 154.173,138.192 141.5,139C 141.833,139.333 142.167,139.667 142.5,140C 141.39,142.253 139.557,143.419 137,143.5C 131.554,143.391 125.721,143.725 119.5,144.5C 119.565,144.062 119.399,143.728 119,143.5C 118.757,147.033 119.257,150.367 120.5,153.5C 122.169,162.176 123.836,170.842 125.5,179.5C 124.833,179.5 124.167,179.5 123.5,179.5C 122.802,172.044 121.469,164.711 119.5,157.5C 118.578,153.888 117.911,150.221 117.5,146.5C 117.5,145.833 117.5,145.167 117.5,144.5C 117.276,140.821 116.942,137.154 116.5,133.5C 116.369,132.761 116.536,132.094 117,131.5C 117.667,132.833 118.333,132.833 119,131.5C 119.053,134.245 120.22,136.245 122.5,137.5C 125.543,136.76 128.71,136.426 132,136.5C 132.333,137.167 132.667,137.833 133,138.5C 134.487,137.747 134.654,136.914 133.5,136C 145.022,134.652 156.356,133.652 167.5,133C 167.043,132.586 166.709,132.086 166.5,131.5C 168.296,130.859 169.796,129.859 171,128.5C 171.519,129.516 172.353,130.182 173.5,130.5C 175.453,129.844 177.453,129.511 179.5,129.5 Z"/></g>
<g><path style="opacity:1" fill="#c6ae8c" d="M 179.5,136.5 C 179.5,137.833 179.5,139.167 179.5,140.5C 175.864,140.594 172.364,141.261 169,142.5C 164.23,142.644 159.397,142.311 154.5,141.5C 150.285,143.695 146.285,144.362 142.5,143.5C 141.304,143.846 141.304,144.346 142.5,145C 139.833,145.667 137.167,146.333 134.5,147C 137.3,148.232 140.3,148.899 143.5,149C 141.618,149.198 139.952,149.698 138.5,150.5C 134.735,150.481 130.902,150.814 127,151.5C 124.182,150.567 123.016,148.567 123.5,145.5C 121.901,145.768 120.568,145.434 119.5,144.5C 125.721,143.725 131.554,143.391 137,143.5C 139.557,143.419 141.39,142.253 142.5,140C 142.167,139.667 141.833,139.333 141.5,139C 154.173,138.192 166.84,137.358 179.5,136.5 Z"/></g>
<g><path style="opacity:1" fill="#c3a47f" d="M 114.5,133.5 C 115.368,137.314 116.368,140.981 117.5,144.5C 117.5,145.167 117.5,145.833 117.5,146.5C 115.325,146.682 113.325,147.349 111.5,148.5C 108.856,147.619 106.189,147.786 103.5,149C 102.874,149.75 102.374,150.584 102,151.5C 101.086,150.346 100.253,150.513 99.5,152C 96.8333,152.333 94.1667,152.667 91.5,153C 88.8333,154.333 88.8333,155.667 91.5,157C 85.5,158.333 79.5,159.667 73.5,161C 72.7476,161.671 72.4142,162.504 72.5,163.5C 72.1667,163.5 71.8333,163.5 71.5,163.5C 69.5,163.5 67.5,163.5 65.5,163.5C 64.799,161.092 63.799,158.758 62.5,156.5C 60.7763,157.661 59.1096,157.495 57.5,156C 62.0462,155.19 62.3795,153.857 58.5,152C 58.8333,151.667 59.1667,151.333 59.5,151C 57.3083,150.074 55.3083,148.907 53.5,147.5C 53.0472,146.542 52.3805,145.708 51.5,145C 56.1561,144.335 60.8228,143.835 65.5,143.5C 65.7373,142.209 65.404,141.209 64.5,140.5C 63.8592,139.518 63.1925,138.518 62.5,137.5C 62.8333,137.167 63.1667,136.833 63.5,136.5C 65.0026,137.052 66.6693,137.052 68.5,136.5C 68.3505,137.552 68.5172,138.552 69,139.5C 71.1271,139.038 73.4605,139.038 76,139.5C 79.4589,139.733 82.6255,138.899 85.5,137C 85.1667,136.667 84.8333,136.333 84.5,136C 89.1667,135.333 93.8333,135.333 98.5,136C 103.491,138.586 107.325,137.419 110,132.5C 111.356,133.38 112.856,133.714 114.5,133.5 Z"/></g>
<g><path style="opacity:1" fill="#b99f80" d="M 44.5,144.5 C 44.7058,146.549 45.5391,146.883 47,145.5C 47.4828,146.448 47.6495,147.448 47.5,148.5C 45.5328,148.739 43.6995,148.406 42,147.5C 41.3109,148.357 40.4776,149.023 39.5,149.5C 38.0333,149.277 36.5333,148.944 35,148.5C 32.595,149.274 30.095,149.774 27.5,150C 28.3448,151.922 28.3448,154.088 27.5,156.5C 24.8127,156.664 22.146,156.497 19.5,156C 20.8333,155 22.1667,154 23.5,153C 22.1667,152.333 22.1667,151.667 23.5,151C 20.5422,150.436 17.5422,150.769 14.5,152C 16.5136,153.683 18.1802,155.683 19.5,158C 15.8043,158.092 12.4709,156.925 9.5,154.5C 7.69611,155.716 6.02944,156.716 4.5,157.5C 3.30441,157.154 3.30441,156.654 4.5,156C 3.90558,155.536 3.23891,155.369 2.5,155.5C 2.36596,153.708 2.69929,152.042 3.5,150.5C 6.23848,151.035 8.07182,150.035 9,147.5C 9.33333,147.833 9.66667,148.167 10,148.5C 11.2436,146.55 13.0769,145.55 15.5,145.5C 21.0219,147.124 26.6886,147.791 32.5,147.5C 32.5,146.167 32.5,144.833 32.5,143.5C 36.5,143.833 40.5,144.167 44.5,144.5 Z"/></g>
<g><path style="opacity:1" fill="#bda281" d="M 64.5,140.5 C 65.404,141.209 65.7373,142.209 65.5,143.5C 60.8228,143.835 56.1561,144.335 51.5,145C 52.3805,145.708 53.0472,146.542 53.5,147.5C 53.4142,148.496 53.7476,149.329 54.5,150C 52.5601,151.207 50.7267,151.374 49,150.5C 47.8903,152.397 47.7236,154.23 48.5,156C 45.417,156.895 42.417,157.895 39.5,159C 41.1667,159.333 42.8333,159.667 44.5,160C 44,160.5 43.5,161 43,161.5C 37.7671,160.618 32.2671,160.451 26.5,161C 25.8333,161.333 25.1667,161.667 24.5,162C 26.693,162.883 28.0264,164.05 28.5,165.5C 28.2648,166.097 27.7648,166.43 27,166.5C 25.9231,165.571 24.7564,164.904 23.5,164.5C 23.1961,163.85 22.8627,163.183 22.5,162.5C 24.4491,160.703 26.1158,158.703 27.5,156.5C 28.3448,154.088 28.3448,151.922 27.5,150C 30.095,149.774 32.595,149.274 35,148.5C 36.5333,148.944 38.0333,149.277 39.5,149.5C 40.4776,149.023 41.3109,148.357 42,147.5C 43.6995,148.406 45.5328,148.739 47.5,148.5C 47.6495,147.448 47.4828,146.448 47,145.5C 45.5391,146.883 44.7058,146.549 44.5,144.5C 48.1629,144.048 51.8296,143.548 55.5,143C 52.438,142.259 49.438,142.425 46.5,143.5C 45.4173,142.635 45.2506,141.635 46,140.5C 51.8676,141.322 58.0343,141.322 64.5,140.5 Z"/></g>
<g><path style="opacity:1" fill="#ceb593" d="M 179.5,140.5 C 179.5,145.833 179.5,151.167 179.5,156.5C 177.871,158.06 176.704,157.727 176,155.5C 173.214,157.031 170.381,158.364 167.5,159.5C 167.719,160.675 167.386,161.675 166.5,162.5C 166.277,161.033 165.944,159.533 165.5,158C 163.302,157.627 161.135,157.127 159,156.5C 158.055,156.905 157.388,157.572 157,158.5C 155.315,156.012 153.981,156.345 153,159.5C 152.21,157.21 150.876,156.877 149,158.5C 147.273,158.354 147.106,157.687 148.5,156.5C 146.234,155.686 143.9,155.186 141.5,155C 145.885,150.959 144.885,149.459 138.5,150.5C 139.952,149.698 141.618,149.198 143.5,149C 140.3,148.899 137.3,148.232 134.5,147C 137.167,146.333 139.833,145.667 142.5,145C 141.304,144.346 141.304,143.846 142.5,143.5C 146.285,144.362 150.285,143.695 154.5,141.5C 159.397,142.311 164.23,142.644 169,142.5C 172.364,141.261 175.864,140.594 179.5,140.5 Z"/></g>
<g><path style="opacity:1" fill="#bf9f7a" d="M 53.5,147.5 C 55.3083,148.907 57.3083,150.074 59.5,151C 59.1667,151.333 58.8333,151.667 58.5,152C 62.3795,153.857 62.0462,155.19 57.5,156C 59.1096,157.495 60.7763,157.661 62.5,156.5C 63.799,158.758 64.799,161.092 65.5,163.5C 61.9827,162.579 58.1494,162.912 54,164.5C 50.7383,163.477 47.405,163.477 44,164.5C 41.9658,164.646 40.2991,163.98 39,162.5C 35.6942,165.029 32.1942,166.029 28.5,165.5C 28.0264,164.05 26.693,162.883 24.5,162C 25.1667,161.667 25.8333,161.333 26.5,161C 32.2671,160.451 37.7671,160.618 43,161.5C 43.5,161 44,160.5 44.5,160C 42.8333,159.667 41.1667,159.333 39.5,159C 42.417,157.895 45.417,156.895 48.5,156C 47.7236,154.23 47.8903,152.397 49,150.5C 50.7267,151.374 52.5601,151.207 54.5,150C 53.7476,149.329 53.4142,148.496 53.5,147.5 Z"/></g>
<g><path style="opacity:1" fill="#d5b997" d="M 119.5,144.5 C 120.568,145.434 121.901,145.768 123.5,145.5C 123.016,148.567 124.182,150.567 127,151.5C 130.902,150.814 134.735,150.481 138.5,150.5C 144.885,149.459 145.885,150.959 141.5,155C 143.9,155.186 146.234,155.686 148.5,156.5C 147.106,157.687 147.273,158.354 149,158.5C 150.876,156.877 152.21,157.21 153,159.5C 153.981,156.345 155.315,156.012 157,158.5C 157.388,157.572 158.055,156.905 159,156.5C 161.135,157.127 163.302,157.627 165.5,158C 165.944,159.533 166.277,161.033 166.5,162.5C 167.386,161.675 167.719,160.675 167.5,159.5C 170.381,158.364 173.214,157.031 176,155.5C 176.704,157.727 177.871,158.06 179.5,156.5C 179.5,161.167 179.5,165.833 179.5,170.5C 177.09,171.383 174.757,172.55 172.5,174C 168.522,174.166 164.689,174.333 161,174.5C 159.135,174.294 157.468,173.628 156,172.5C 146.576,172.739 137.076,172.905 127.5,173C 134.506,172.393 141.506,171.727 148.5,171C 145.294,170.704 142.128,170.204 139,169.5C 137.739,169.759 136.739,170.426 136,171.5C 135.221,170.272 134.221,169.272 133,168.5C 130.217,169.31 127.383,169.31 124.5,168.5C 124.665,166.173 125.331,164.007 126.5,162C 124.615,159.312 124.282,156.478 125.5,153.5C 123.916,151.105 122.249,151.105 120.5,153.5C 119.257,150.367 118.757,147.033 119,143.5C 119.399,143.728 119.565,144.062 119.5,144.5 Z"/></g>
<g><path style="opacity:1" fill="#d0b391" d="M 117.5,146.5 C 117.911,150.221 118.578,153.888 119.5,157.5C 118.064,157.322 116.564,156.989 115,156.5C 113.505,158.248 111.505,158.582 109,157.5C 106.363,157.657 103.863,158.323 101.5,159.5C 100.167,158.833 98.8333,158.167 97.5,157.5C 89.0118,159.135 80.6785,161.135 72.5,163.5C 72.4142,162.504 72.7476,161.671 73.5,161C 79.5,159.667 85.5,158.333 91.5,157C 88.8333,155.667 88.8333,154.333 91.5,153C 94.1667,152.667 96.8333,152.333 99.5,152C 100.253,150.513 101.086,150.346 102,151.5C 102.374,150.584 102.874,149.75 103.5,149C 106.189,147.786 108.856,147.619 111.5,148.5C 113.325,147.349 115.325,146.682 117.5,146.5 Z"/></g>
<g><path style="opacity:1" fill="#bca182" d="M -0.5,147.5 C 0.777251,148.694 1.44392,150.36 1.5,152.5C 0.611769,158.154 0.445102,163.82 1,169.5C 1.43499,164.816 1.93499,160.149 2.5,155.5C 3.23891,155.369 3.90558,155.536 4.5,156C 3.30441,156.654 3.30441,157.154 4.5,157.5C 6.02944,156.716 7.69611,155.716 9.5,154.5C 12.4709,156.925 15.8043,158.092 19.5,158C 18.1802,155.683 16.5136,153.683 14.5,152C 17.5422,150.769 20.5422,150.436 23.5,151C 22.1667,151.667 22.1667,152.333 23.5,153C 22.1667,154 20.8333,155 19.5,156C 22.146,156.497 24.8127,156.664 27.5,156.5C 26.1158,158.703 24.4491,160.703 22.5,162.5C 22.8627,163.183 23.1961,163.85 23.5,164.5C 19.926,163.131 17.0926,163.798 15,166.5C 10.4501,162.907 7.61673,163.907 6.5,169.5C 4.85613,169.286 3.35613,169.62 2,170.5C 1.49782,173.513 0.997821,176.513 0.5,179.5C 0.166667,179.5 -0.166667,179.5 -0.5,179.5C -0.5,168.833 -0.5,158.167 -0.5,147.5 Z"/></g>
<g><path style="opacity:1" fill="#d9be9f" d="M 119.5,157.5 C 121.469,164.711 122.802,172.044 123.5,179.5C 97.1667,179.5 70.8333,179.5 44.5,179.5C 62.9827,177.602 81.6493,176.102 100.5,175C 78.5041,175.755 56.5041,176.422 34.5,177C 37.687,176.999 40.5203,176.166 43,174.5C 43.3333,174.833 43.6667,175.167 44,175.5C 49.0441,174.173 53.8774,172.173 58.5,169.5C 62.1588,168.724 65.8255,168.057 69.5,167.5C 69.5271,165.801 70.1938,164.467 71.5,163.5C 71.8333,163.5 72.1667,163.5 72.5,163.5C 80.6785,161.135 89.0118,159.135 97.5,157.5C 98.8333,158.167 100.167,158.833 101.5,159.5C 103.863,158.323 106.363,157.657 109,157.5C 111.505,158.582 113.505,158.248 115,156.5C 116.564,156.989 118.064,157.322 119.5,157.5 Z"/></g>
<g><path style="opacity:1" fill="#cfb492" d="M 65.5,163.5 C 67.5,163.5 69.5,163.5 71.5,163.5C 70.1938,164.467 69.5271,165.801 69.5,167.5C 65.8255,168.057 62.1588,168.724 58.5,169.5C 53.8774,172.173 49.0441,174.173 44,175.5C 43.6667,175.167 43.3333,174.833 43,174.5C 40.5203,176.166 37.687,176.999 34.5,177C 56.5041,176.422 78.5041,175.755 100.5,175C 81.6493,176.102 62.9827,177.602 44.5,179.5C 39.8333,179.5 35.1667,179.5 30.5,179.5C 29.3915,178.71 28.0581,178.21 26.5,178C 26.8333,177.667 27.1667,177.333 27.5,177C 33.9078,175.63 40.2412,173.964 46.5,172C 47.1667,170.667 48.1667,169.667 49.5,169C 52.8333,168.333 56.1667,167.667 59.5,167C 61.2573,165.25 63.2573,164.084 65.5,163.5 Z"/></g>
<g><path style="opacity:1" fill="#c4a784" d="M 65.5,163.5 C 63.2573,164.084 61.2573,165.25 59.5,167C 56.1667,167.667 52.8333,168.333 49.5,169C 48.1667,169.667 47.1667,170.667 46.5,172C 40.2412,173.964 33.9078,175.63 27.5,177C 27.1667,177.333 26.8333,177.667 26.5,178C 28.0581,178.21 29.3915,178.71 30.5,179.5C 20.5,179.5 10.5,179.5 0.5,179.5C 0.997821,176.513 1.49782,173.513 2,170.5C 3.35613,169.62 4.85613,169.286 6.5,169.5C 7.61673,163.907 10.4501,162.907 15,166.5C 17.0926,163.798 19.926,163.131 23.5,164.5C 24.7564,164.904 25.9231,165.571 27,166.5C 27.7648,166.43 28.2648,166.097 28.5,165.5C 32.1942,166.029 35.6942,165.029 39,162.5C 40.2991,163.98 41.9658,164.646 44,164.5C 47.405,163.477 50.7383,163.477 54,164.5C 58.1494,162.912 61.9827,162.579 65.5,163.5 Z"/></g>
<g><path style="opacity:1" fill="#dabf9f" d="M 179.5,170.5 C 179.5,173.5 179.5,176.5 179.5,179.5C 161.5,179.5 143.5,179.5 125.5,179.5C 123.836,170.842 122.169,162.176 120.5,153.5C 122.249,151.105 123.916,151.105 125.5,153.5C 124.282,156.478 124.615,159.312 126.5,162C 125.331,164.007 124.665,166.173 124.5,168.5C 127.383,169.31 130.217,169.31 133,168.5C 134.221,169.272 135.221,170.272 136,171.5C 136.739,170.426 137.739,169.759 139,169.5C 142.128,170.204 145.294,170.704 148.5,171C 141.506,171.727 134.506,172.393 127.5,173C 137.076,172.905 146.576,172.739 156,172.5C 157.468,173.628 159.135,174.294 161,174.5C 164.689,174.333 168.522,174.166 172.5,174C 174.757,172.55 177.09,171.383 179.5,170.5 Z"/></g>
</svg>
